<?xml version="1.0" encoding="UTF-8"?>
<svg id="_レイヤー_2" data-name="レイヤー 2" xmlns="http://www.w3.org/2000/svg" viewBox="0 0 325 110">
  <defs>
    <style>
      .cls-1, .cls-2, .cls-3 {
        stroke-width: 0px;
      }

      .cls-2 {
        opacity: 0;
      }

      .cls-3 {
        fill: #514100;
      }
    </style>
  </defs>
  <g id="_フッター" data-name="フッター">
    <g>
      <path class="cls-1" d="m83.1912039,25.6102071h1.4488776c.4684579,0,1.0692072.078307,1.0692072.6385186v5.0389102s-1.6298143.5982063-4.5740396.5982063c-2.9426434,0-6.8765824-1.6203225-6.8765824-6.1081452,0-4.4850542,4.1039997-6.2309448,7.1352328-6.2309448,1.3683954,0,3.0743415.08068,3.0743415.8485238v1.4981161c-1.1516669-.9396842-1.6191361-1.1139255-3.3689816-1.1139255-1.7569643,0-4.8991324,1.1497174-4.8991324,4.8965896,0,3.7274932,4.213155,5.9533108,7.7209535,4.5445755v-2.8602114c0-.5999305-.0474588-1.7502131-.7298768-1.7502131Z"/>
      <path class="cls-1" d="m105.1944878,31.580524h3.7126624c-1.0227371-.3842185-1.4488776-1.6187405-1.7927562-2.5182825-.3456583-.8932141-3.0340015-7.4302682-3.3268619-8.327635-.3053183-.8949938-.7253287-.8949938-1.0755351-.8949938h-2.1257588c1.0207597.3434831.4583729,1.0692072.2883122,1.5805478-.16749.5090236-3.7530024,9.3986499-3.7530024,9.3986499-1.2412454-.3415056-4.3664074-4.9135676-4.3664074-4.9135676,4.143351-1.1922046,3.5111602-6.06563-.5499288-6.06563h-4.6564993c.9420572.2123781.8570268,1.1987302.8570268,1.966574v8.0705665c0,1.1077675-.3430876,1.4108828-.8973668,1.7037709h3.4136719c-.9377068-.4245585-.6877571-1.4087353-.6877571-1.877391v-8.7073054h1.8419947c.9869453,0,1.7077258,1.1967527,1.7077258,2.0088914,0,1.3155975-1.0288672,1.8313164-2.0470562,2.2133597-1.029065.3836253-.4710286,1.2388724,0,1.9199062.4682602.6853842,1.8330962,2.6111949,2.6515627,3.5515001.8085793.939882,1.5356877.8910389,1.9181265.8910389h3.0741438c-1.1900294-.3796704-.5517086-1.3150042-.3840208-1.7860328.1746088-.4734015.9402775-2.4805132.9402775-2.4805132h4.6125999s.5578386,1.4488776,1.0692072,2.736593c.5176964,1.2750597.1226019,1.4470979-.4243608,1.529953Zm-4.7866155-5.6331617l1.7498455-4.5696891,1.8823347,4.5696891h-3.6321802Z"/>
      <path class="cls-1" d="m142.6044802,31.580524h3.7235384c-1.0316357-.3842185-1.4552055-1.6187405-1.7945359-2.5182825-.3395282-.8932141-3.0347925-7.4302682-3.3312123-8.327635-.3019566-.8949938-.7217693-.8949938-1.0719756-.8949938h-2.1312956c1.0308447.3434831.4684579,1.0692072.2946401,1.5805478-.1700607.5090236-3.7593302,9.3986499-3.7593302,9.3986499-.238085.5580364-.5882914.5663417-.8085793.7617137h3.0761212c-1.196555-.3796704-.5562567-1.3150042-.3859982-1.7860328.1692697-.4734015.9438369-2.4805132.9438369-2.4805132h4.6108202s.5623868,1.4488776,1.0727666,2.736593c.5095889,1.2750597.1235906,1.4470979-.4387962,1.529953Zm-4.7773215-5.6331617l1.7498455-4.5696891,1.8777865,4.5696891h-3.627632Z"/>
      <path class="cls-1" d="m129.4659069,31.7990322c.4261405-.3859982.8121387-.6873893.8121387-2.0498524v-8.0725162c0-.6383208-.0492385-1.3705706-.8121387-1.6246729h3.2819738c-.3393304.3029453-.7451032.6826157-.7451032,1.5420155v8.1551736c0,.7281248-.1487042,1.7977275.7933529,2.0498524h-3.3302236Z"/>
      <path class="cls-1" d="m111.7691136,22.5700756s-.0421197,6.4474478-.0421197,7.1791043c0,.7281248.0868101,1.7977275,1.0262966,2.0498524h-3.1208116c.4352367-.3859982.7682393-.6873893.7682393-2.0498524,0-1.3638195.0913582-7.4379525.0913582-8.0725162,0-.6383208-.0913582-1.3705706-.8595975-1.6246729h2.3998333l7.1712224,9.0102507v-7.3406897c0-.4732038.0868101-1.3666157-.8955871-1.7081213h3.2014916c-.3796704.2926626-.9448256.4243608-.9448256,1.6632332v10.597352s-.891039.1635351-2.3399166-1.5845306c-1.4569852-1.7480658-6.4555833-8.1194095-6.4555833-8.1194095Z"/>
      <path class="cls-1" d="m132.1809457,40.8923359c-9.3926898-7.917935-12.9880894-17.236047-.139608-29.9508525.4030043-.4028066.7844544-.1633374.4682602.1971518-5.6307889,6.43934-11.9127521,16.7371364-.1289297,29.3613747.1827164.1908239.1146921.6108343-.1997225.3923261Z"/>
      <g>
        <path class="cls-1" d="m158.4783933,28.4775391c0,1.46875.027832,1.6787109.8393555,1.7490234l.4477539.0419922c.0839844.0556641.0556515.3076172-.027832.3496094-.7978516-.027832-1.2734375-.0419922-1.8330078-.0419922-.5600586,0-1.0498047.0141602-1.9453125.0419922-.0839844-.0419922-.1118164-.2797852,0-.3496094l.5039062-.0419922c.7973633-.0703125.8676758-.2802734.8676758-1.7490234v-6.2548828c0-.4335938,0-.4477539-.4199219-.4477539h-.7695312c-.6015625,0-1.3710938.0283203-1.7211914.3500977-.3359375.3076172-.4755859.6157227-.6293945.965332-.1123047.0839844-.3081055.0141602-.3637695-.0981445.2236328-.6293945.4335938-1.5249023.5317383-2.0844727.0419922-.0283203.2236328-.0419922.265625,0,.0839844.4477539.5458984.4335938,1.1894531.4335938h5.6669922c.7553711,0,.8813477-.027832,1.0913086-.3916016.0698242-.0283203.2236328-.0141602.2519531.0415039-.1542969.5737305-.2519531,1.7075195-.2099609,2.1269531-.0561523.1118164-.2939453.1118164-.3637695.0283203-.0419922-.3500977-.1401367-.8676758-.3500977-1.0214844-.3217773-.2382812-.8535156-.3500977-1.6230469-.3500977h-.9931641c-.4199219,0-.4057617.0141602-.4057617.4760742v6.2265625Z"/>
        <path class="cls-1" d="m162.755737,26.0566406c0-2.7983398,2.0991211-4.9394531,4.9814453-4.9394531,3.2319336,0,4.8554688,2.3369141,4.8554688,4.7993164,0,2.8266602-2.1552734,4.8837891-4.8554688,4.8837891-3.1064453,0-4.9814453-2.2250977-4.9814453-4.7436523Zm8.4375.2939453c0-2.3085938-1.0214844-4.7993164-3.6938477-4.7993164-1.4555664,0-3.3442383.9931641-3.3442383,4.0576172,0,2.0708008,1.0073242,4.7573242,3.7636719,4.7573242,1.6791992,0,3.2744141-1.2592773,3.2744141-4.015625Z"/>
        <path class="cls-1" d="m175.0223386,23.4399414c0-1.4692383-.027832-1.6928711-.8393555-1.7626953l-.3500977-.0283203c-.0839844-.0556641-.0556641-.3076172.0283203-.3496094.6855469.027832,1.1333008.0419922,1.7626953.0419922.5458984,0,1.0214844-.0141602,1.6230469-.0419922.0839844.0419922.1123047.2939453.0283203.3496094l-.2661133.0283203c-.8115234.0839844-.8393555.293457-.8393555,1.7626953v1.609375c0,.265625.027832.5317383.1816406.5317383.1259766,0,.2939453-.0839844.3920898-.1538086.1958008-.1679688.5595703-.5317383.7133789-.671875l1.5112305-1.4970703c.2661133-.2519531.9516602-.9658203,1.0913086-1.1616211.0703125-.0976562.0981445-.1679688.0981445-.2236328,0-.0561523-.0561523-.0981445-.237793-.1401367l-.3779297-.0839844c-.0981445-.0976562-.0839844-.2797852.027832-.3496094.4897461.027832,1.0493164.0419922,1.5390625.0419922s.9658203-.0141602,1.3852539-.0419922c.0981445.0698242.1123047.265625.0283203.3496094-.3637695.0283203-.909668.1679688-1.3012695.3920898-.3920898.2236328-1.175293.8813477-1.9589844,1.6230469l-1.2592773,1.1894531c-.1958008.1958008-.3217773.3217773-.3217773.4335938,0,.0981445.0839844.2099609.265625.4335938,1.3295898,1.5253906,2.4067383,2.784668,3.4980469,3.9321289.3359375.3354492.6435547.5175781,1.1196289.5737305l.3774414.0419922c.0981445.0698242.0703125.3076172-.027832.3496094-.3637695-.027832-.909668-.0419922-1.5668945-.0419922-.5737305,0-1.0634766.0141602-1.7070312.0419922-.0981445-.027832-.1401367-.2661133-.0561523-.3496094l.3217773-.0561523c.1958008-.027832.3359375-.0698242.3359375-.1401367,0-.0839844-.0981445-.1958008-.1958008-.3217773-.2661133-.3354492-.6298828-.7133789-1.1616211-1.3149414l-1.1191406-1.2592773c-.7978516-.8955078-1.0214844-1.1757812-1.3574219-1.1757812-.2099609,0-.237793.1821289-.237793.671875v1.8051758c0,1.46875.027832,1.6650391.8115234,1.7490234l.3779297.0419922c.0839844.0556641.0556641.3076172-.0283203.3496094-.6855469-.027832-1.1611328-.0419922-1.7070312-.0419922-.5737305,0-1.0493164.0141602-1.6230469.0419922-.0839844-.0419922-.1118164-.2519531-.027832-.3496094l.2797852-.0419922c.7416992-.1123047.7695312-.2802734.7695312-1.7490234v-5.0375977Z"/>
        <path class="cls-1" d="m182.8123777,26.0566406c0-2.7983398,2.0991211-4.9394531,4.9814453-4.9394531,3.2319336,0,4.8554688,2.3369141,4.8554688,4.7993164,0,2.8266602-2.1552734,4.8837891-4.8554688,4.8837891-3.1064453,0-4.9814453-2.2250977-4.9814453-4.7436523Zm8.4375.2939453c0-2.3085938-1.0214844-4.7993164-3.6938477-4.7993164-1.4555664,0-3.3442383.9931641-3.3442383,4.0576172,0,2.0708008,1.0073242,4.7573242,3.7636719,4.7573242,1.6791992,0,3.2744141-1.2592773,3.2744141-4.015625Z"/>
        <path class="cls-1" d="m195.0789792,23.4541016c0-1.3291016-.0419922-1.5673828-.6157227-1.637207l-.4477539-.0556641c-.0976562-.0703125-.0976562-.2939453.0141602-.3500977.7836914-.0698242,1.7490234-.1118164,3.1201172-.1118164.8676758,0,1.6933594.0698242,2.3369141.4199219.6713867.3496094,1.1611328.9794922,1.1611328,1.9584961,0,1.3295898-1.0493164,2.0571289-1.7490234,2.3369141-.0698242.0839844,0,.2241211.0698242.3359375,1.1196289,1.8046875,1.8613281,2.9243164,2.8125,3.7216797.2382812.2099609.5878906.3637695.9658203.3920898.0698242.027832.0839844.1396484.0136719.1958008-.1259766.0419922-.3496094.0698242-.6157227.0698242-1.1889648,0-1.902832-.3496094-2.8959961-1.7626953-.3642578-.5180664-.9375-1.4833984-1.371582-2.1132812-.2099609-.3076172-.4335938-.4477539-.9931641-.4477539-.6298828,0-.6577148.0141602-.6577148.3081055v1.7631836c0,1.46875.027832,1.6367188.8393555,1.7490234l.2939453.0419922c.0839844.0698242.0561523.3076172-.027832.3496094-.6298828-.027832-1.1054688-.0419922-1.6650391-.0419922-.5878906,0-1.0917969.0141602-1.7490234.0419922-.0839844-.0419922-.1123047-.2519531-.0283203-.3496094l.3500977-.0419922c.8115234-.0981445.8393555-.2802734.8393555-1.7490234v-5.0234375Zm1.1474609,2.0009766c0,.2519531,0,.4057617.0419922.4614258.0419922.0419922.2519531.0703125.965332.0703125.5039062,0,1.0356445-.0561523,1.4414062-.3637695.3774414-.2939453.6992188-.7836914.6992188-1.7353516,0-1.1054688-.6855469-2.1547852-2.2387695-2.1547852-.8671875,0-.9091797.0561523-.9091797.4477539v3.2744141Z"/>
        <path class="cls-1" d="m202.4490964,26.0566406c0-2.7983398,2.0991211-4.9394531,4.9814453-4.9394531,3.2319336,0,4.8554688,2.3369141,4.8554688,4.7993164,0,2.8266602-2.1552734,4.8837891-4.8554688,4.8837891-3.1064453,0-4.9814453-2.2250977-4.9814453-4.7436523Zm8.4375.2939453c0-2.3085938-1.0214844-4.7993164-3.6938477-4.7993164-1.4555664,0-3.3442383.9931641-3.3442383,4.0576172,0,2.0708008,1.0073242,4.7573242,3.7636719,4.7573242,1.6791992,0,3.2744141-1.2592773,3.2744141-4.015625Z"/>
        <path class="cls-1" d="m217.8499753,24.2514648c.7275391-1.0351562,1.1333008-1.5668945,1.3574219-1.9868164.0976562-.1679688.1679688-.2797852.1679688-.3779297,0-.0698242-.1401367-.1118164-.5039062-.1118164h-2.0849609c-1.1191406,0-1.7490234.0981445-2.0849609.4619141-.293457.3217773-.503418.7133789-.6157227.9511719-.1254883.0561523-.293457.0141602-.3496094-.0976562.1679688-.4897461.4057617-1.3291016.5737305-2.0991211.0561523-.0415039.1679688-.0415039.237793,0,.0419922.3359375.2519531.3500977,1.3852539.3500977h3.6938477c1.0078125,0,1.4555664-.0141602,1.609375-.0419922.0556641.0141602.0839844.0698242.0839844.1259766-.3779297.3217773-1.5673828,1.9448242-2.2949219,2.9941406l-2.3085938,3.3300781c-.1538086.2241211-1.3852539,1.9589844-1.3852539,2.1689453,0,.1401367.1396484.1679688.3916016.1958008.3637695.0283203,1.0913086.0283203,2.0708008.0283203.8955078,0,2.0571289-.0283203,2.5888672-.3217773.4057617-.2241211.7416992-.7416992.9794922-1.2875977.1259766-.0419922.3076172-.027832.3496094.0981445-.1259766.6435547-.4057617,1.637207-.6293945,1.9868164-.7700195-.027832-1.5673828-.0419922-2.546875-.0419922h-3.5961914c-.7412109,0-1.2451172.027832-1.5668945.0419922-.0561523-.027832-.0698242-.0981445-.0698242-.1679688.2939453-.2797852,1.0913086-1.2734375,1.5249023-1.902832l3.0224609-4.2958984Z"/>
        <path class="cls-1" d="m227.7528073,27.3300781c-.0976562-.3081055-.1538086-.3500977-.5737305-.3500977h-2.112793c-.3496094,0-.4335938.0419922-.5317383.3359375l-.4897461,1.4692383c-.2099609.6298828-.3076172,1.0073242-.3076172,1.1611328,0,.1679688.0698242.2519531.4057617.2802734l.4614258.0419922c.0981445.0698242.0981445.293457-.027832.3496094-.3637695-.027832-.7973633-.027832-1.4550781-.0419922-.4619141,0-.965332.027832-1.3432617.0419922-.0839844-.0561523-.1118164-.2797852-.027832-.3496094l.4614258-.0419922c.3359375-.0283203.6435547-.1821289.8398438-.6860352.2514648-.6435547.6435547-1.5527344,1.230957-3.1201172l1.4272461-3.777832c.1958008-.5039062.2797852-.7695312.237793-.9936523.3359375-.0976562.5737305-.3496094.7280273-.5317383.0839844,0,.1816406.0283203.2094727.1259766.1821289.6157227.4057617,1.2592773.6157227,1.875l1.9169922,5.625c.4057617,1.203125.5878906,1.4130859,1.1894531,1.4833984l.3779297.0419922c.0976562.0698242.0698242.293457,0,.3496094-.5737305-.027832-1.0634766-.0419922-1.6933594-.0419922-.6713867,0-1.203125.027832-1.6088867.0419922-.1118306-.0561523-.1259766-.2797852-.027832-.3496094l.4057617-.0419922c.293457-.0283203.4897461-.1123047.4897461-.2519531,0-.1538086-.0703125-.4057617-.1821289-.7416992l-.6157227-1.902832Zm-2.7705078-1.2456055c-.1118164.3217773-.0976562.3359375.2939453.3359375h1.7211914c.4057617,0,.4335938-.0561523.3076172-.4335938l-.7553711-2.2807617c-.1123047-.3359375-.2382812-.7138672-.3217773-.8818359h-.0283203c-.0419922.0703125-.1816406.4057617-.3354492.8256836l-.8818359,2.4345703Z"/>
        <path class="cls-1" d="m229.3309323,21.6352539c-.0839844-.0839844-.0698242-.2797852.0419922-.3359375.3779297.027832,1.0073242.0419922,1.4414062.0419922.3916016,0,1.1049805-.0141602,1.5947266-.0419922.1259766.0419922.1123047.237793.0283203.3359375l-.3217773.027832c-.2939453.027832-.4619141.1118164-.4619141.237793,0,.1679688.2939453.8813477.7275391,1.875.7836914,1.7490234,1.609375,3.4980469,2.4208984,5.2192383.3354492-.699707.7133789-1.4833984,1.0771484-2.2666016.1259766-.2661133.2241211-.5039062.2241211-.5737305,0-.0703125-.0419922-.1962891-.1123047-.3637695-.4897461-1.1196289-1.0073242-2.2387695-1.5390625-3.3583984-.2099609-.4335938-.4194336-.7275391-.8955078-.7695312l-.3359375-.027832c-.0976562-.1123047-.0834961-.2797852.0283203-.3359375.4057617.027832.9375.0419922,1.4970703.0419922.699707,0,1.2172852-.0141602,1.5390625-.0419922.0981445.0419922.1118164.2236328.0283203.3359375l-.3642578.027832c-.5454102.0419922-.5595703.1401367-.293457.7695312.293457.6855469.6855469,1.5673828,1.0771484,2.4345703.2661133-.5454102.5175781-1.0771484.8256836-1.8330078.5039062-1.1889648.4335938-1.3432617-.0141602-1.3710938l-.4194336-.027832c-.0981445-.1401367-.0703125-.2939453.027832-.3359375.3779297.027832.7973633.0419922,1.3154297.0419922.4614258,0,1.0209961-.0141602,1.3432617-.0419922.0976562.0419922.1118164.2236328.027832.3359375l-.4057617.027832c-.5878906.0419922-.8398438.6713867-1.1474609,1.2451172-.2939453.5180664-.8813477,1.7353516-1.0913086,2.2250977-.0698242.1396484-.1259766.2797852-.1259766.3354492,0,.0561523.027832.1679688.0981445.3359375.4755859,1.0776367.965332,2.1269531,1.4267578,3.1904297.434082-.9794922.8535156-1.9589844,1.2597656-2.9526367.2797852-.6713867,1.0209961-2.5322266,1.1191406-2.7841797.1821289-.5039062.4199219-1.1054688.4199219-1.2734375,0-.1958008-.1679688-.3076172-.4619141-.3217773l-.4057617-.027832c-.1118164-.1259766-.0981445-.2797852.0141602-.3359375.5317383.027832.9091797.0419922,1.3432617.0419922.5317383,0,.9375-.0141602,1.3012695-.0419922.1118164.0419922.1259766.2236328.027832.3359375l-.265625.027832c-.699707.0698242-.8256836.4897461-1.6655273,2.4345703l-1.0209961,2.3647461c-.6157227,1.4272461-1.1757812,2.7983398-1.7490234,4.2958984-.0419922.027832-.0981445.0419922-.1679688.0419922-.0703125,0-.1401367-.0141602-.1962891-.0419922-.4477539-1.2456055-1.2592773-2.9946289-1.6928711-3.9741211-.5039062,1.0214844-1.3432617,2.8125-1.7490234,3.9741211-.0419922.027832-.0981445.0419922-.1679688.0419922s-.1396484-.0141602-.2099609-.0419922c-.237793-.5878906-.7832031-1.847168-.965332-2.2529297-.8955078-1.9448242-1.7631836-3.8901367-2.6723633-5.8349609-.2661133-.5737305-.434082-.9511719-1.0214844-1.0073242l-.3359375-.027832Z"/>
        <path class="cls-1" d="m247.4456784,27.3300781c-.0981445-.3081055-.1538086-.3500977-.5737305-.3500977h-2.112793c-.3496094,0-.4335938.0419922-.5317383.3359375l-.4897461,1.4692383c-.2099609.6298828-.3076172,1.0073242-.3076172,1.1611328,0,.1679688.0698242.2519531.4057617.2802734l.4614258.0419922c.0981445.0698242.0981445.293457-.027832.3496094-.3637695-.027832-.7973633-.027832-1.4550781-.0419922-.4619141,0-.965332.027832-1.3432617.0419922-.0839844-.0561523-.1118164-.2797852-.027832-.3496094l.4614258-.0419922c.3359375-.0283203.6435547-.1821289.8398438-.6860352.2514648-.6435547.6435547-1.5527344,1.230957-3.1201172l1.4272461-3.777832c.1958008-.5039062.2797852-.7695312.237793-.9936523.3359375-.0976562.5737305-.3496094.7280273-.5317383.0834961,0,.1816406.0283203.2094727.1259766.1821289.6157227.4057617,1.2592773.6157227,1.875l1.9169922,5.625c.4057617,1.203125.5878906,1.4130859,1.1894531,1.4833984l.3779297.0419922c.0976562.0698242.0698242.293457,0,.3496094-.5737305-.027832-1.0634766-.0419922-1.6933594-.0419922-.6713867,0-1.203125.027832-1.6088867.0419922-.1118164-.0561523-.1259766-.2797852-.0283203-.3496094l.40625-.0419922c.293457-.0283203.4892578-.1123047.4892578-.2519531,0-.1538086-.0698242-.4057617-.1816406-.7416992l-.6157227-1.902832Zm-2.7705078-1.2456055c-.1118164.3217773-.0976562.3359375.2939453.3359375h1.7211914c.4057617,0,.4335938-.0561523.3076172-.4335938l-.7553711-2.2807617c-.1123047-.3359375-.237793-.7138672-.3217773-.8818359h-.0283203c-.0419922.0703125-.1816406.4057617-.3359375.8256836l-.8813477,2.4345703Z"/>
      </g>
    </g>
    <g>
      <g>
        <path class="cls-3" d="m52.6525879,50.7099609c0-.3095703.4335938-.3095703.6811523-.3095703,2.1669922,0,2.8793945,1.6098633,2.8793945,1.7338867,0,.371582-.3100586.7739258-.9291992,1.5478516-.1547852.2167969-.2475586.3408203-.2475586.4956055,0,.2475586.371582.2475586.4956055.2475586.3095703,0,2.6005859-.3408203,4.7055664-1.2382812.371582-.1547852,1.1147461-.4956055,1.4550781-.4956055.2788086,0,.4335938.0927734,1.703125.8359375.1855469.0927734.9907227.5263672,1.1455078.6191406.340332.2167969.5883789.5263672.5883789.7739258,0,.4335938-.2167969.5576172-1.2387695,1.1767578-.340332.2167969-.4643555.4023438-1.5478516,2.0742187-1.5791016,2.4765625-4.9228516,7.5541992-11.0834961,11.6411133-3.4057617,2.2290039-5.9755859,2.972168-6.1611328,2.972168-.1547852,0-.2788086-.1240234-.2788086-.2788086,0-.1240234.0927734-.1855469,1.0527344-.7119141,9.4428711-5.2016602,15.3251953-15.7587891,15.3251953-16.71875,0-.2783203-.2475586-.340332-.340332-.340332-.0620117,0-4.3344727.9594727-5.0776367.9594727-.1860352,0-1.0219727-.0927734-1.2075195-.0927734-.5883789,0-.6503906.0620117-1.9506836,1.5483398-1.8881836,2.1049805-2.6625977,2.9101562-4.2104492,4.0244141-1.269043.9291992-2.6005859,1.6411133-2.972168,1.6411133-.1547852,0-.2167969-.0927734-.2167969-.1860352,0-.2163086,2.074707-1.9501953,2.4458008-2.3217773,2.5078125-2.5078125,5.4492188-6.7802734,5.2016602-8.6376953-.03125-.1547852-.2167969-.8359375-.2167969-.9599609Zm14.5820312,1.0527344c0,.5263672-.371582,1.2075195-.8979492,1.2075195-.4331055,0-.6811523-.1860352-1.640625-1.331543-.6191406-.7119141-.9287109-.9287109-2.1982422-1.8266602-.1547852-.0927734-.4643555-.3095703-.4643555-.4331055,0-.1240234.2475586-.2788086.5263672-.2788086,3.9628906,0,4.6748047,2.2910156,4.6748047,2.6625977Zm.7431641-4.6748047c1.2695312.7426758,1.2695312,1.4550781,1.2695312,1.7646484,0,.4643555-.3095703.8974609-.7744141.8974609-.6499023,0-.9594727-.3095703-1.640625-1.0214844-.4956055-.5263672-1.7958984-1.2382812-2.8481445-1.5170898-.3100586-.0927734-.402832-.2475586-.402832-.340332,0-.2480469.8051758-.4335938,1.1147461-.4335938,1.2075195,0,2.2290039,0,3.2817383.6503906Z"/>
        <path class="cls-3" d="m78.1022949,71.2055664c9.6591797-5.2011719,12.1982422-11.8886719,12.1982422-12.5390625,0-.3710938-.2167969-.5878906-.6503906-.5878906-1.0527344,0-8.8237305,1.3623047-10.1855469,1.7646484-.2167969.0620117-1.2075195.5263672-1.4243164.5263672-1.331543,0-3.5292969-2.6625977-3.5292969-3.5292969,0-.0932617.0927734-.1552734.1855469-.1552734s.4643555.2167969.5571289.2480469c.5883789.2475586,1.7646484.5263672,3.0654297.5263672,2.5385742,0,8.699707-.8051758,9.8452148-.9291992.0620117,0,2.1049805-.1855469,2.1362305-.1855469.1547852-.0620117.7431641-.340332.8979492-.340332.5258789,0,2.7241211,1.8261719,2.7241211,2.5385742,0,.4643555-.1235352.5883789-.8359375,1.1762695-.5263672.4335938-.8359375.8979492-1.671875,2.1982422-2.4458008,3.715332-4.3652344,6.0371094-8.7304688,8.2666016-2.7553711,1.3930664-5.2011719,2.012207-5.4799805,2.012207-.2475586,0-.2788086-.1855469-.2788086-.2475586s.03125-.1547852.0620117-.1860352c.0620117-.0620117.9287109-.4643555,1.1147461-.5571289Zm.7739258-20.2480469c.4951172.1240234,1.2075195.1240234,1.640625.1240234,1.4555664,0,3.4985352-.0620117,4.9536133-.3408203.4648438-.0927734,2.6010742-.6191406,3.0341797-.6191406.5263672,0,1.8886719.2788086,1.8886719,1.1767578,0,.9594727-1.0834961,1.0527344-2.8793945,1.2075195-.4951172.0615234-7.1518555.6499023-7.3681641.6499023-1.6411133,0-2.5698242-2.1049805-2.5698242-2.3217773,0-.1547852.0620117-.2167969.1855469-.2167969.1860352,0,.9287109.3095703,1.1147461.340332Z"/>
        <path class="cls-3" d="m109.310791,66.5922852c-.8051758.5883789-2.3842773,1.7651367-3.0341797,2.5390625-.5883789.7119141-.6503906.7739258-1.1147461.7739258-1.671875,0-3.9628906-1.9814453-3.9628906-3.2197266,0-.2167969.03125-1.6411133.3095703-1.6411133.1240234,0,.8051758.5263672.9287109.5883789.402832.2475586,1.4243164.7119141,2.1054688.7119141,1.5170898,0,9.7216797-5.4799805,14.8608398-10.5571289.4956055-.4956055,1.3623047-1.3623047,1.4243164-1.3623047s.1547852.0927734.1547852.1547852c0,.2788086-3.6225586,6.0678711-11.671875,12.012207Zm-2.5390625-10.1855469c-.8359375,0-1.1455078-.4956055-2.1669922-2.043457-1.0527344-1.5791016-1.9506836-2.043457-2.8173828-2.5385742-.1240234-.0620117-.2788086-.1547852-.2788086-.2788086s.2480469-.2788086.6811523-.2788086c3.3129883,0,5.9135742,1.7651367,5.9135742,3.5917969,0,.9287109-.5263672,1.5478516-1.331543,1.5478516Z"/>
        <path class="cls-3" d="m132.4377441,59.6884766c0,.6191406-.4643555,1.5478516-1.2075195,1.5478516-.4643555,0-.6191406-.1855469-1.0834961-.9594727-.6499023-1.1147461-1.7026367-1.9199219-2.8173828-2.5698242-.0927734-.0620117-.2783203-.1860352-.2783203-.3095703,0-.4335937,1.7646484-.4643555,2.1669922-.4643555,1.331543,0,3.2197266,1.2382812,3.2197266,2.7553711Zm-3.8081055,9.5976562c-.0927734-.1547852-.6499023-.8051758-.7426758-.9599609-.0932617-.1547852-.1860352-.4023438-.1860352-.5883789,0-.1235352.0927734-.2163086.2788086-.2163086.2783203,0,1.4550781.4023438,1.7026367.4023438,1.331543,0,9.659668-4.644043,17.059082-13.0341797.1547852-.1860352,1.2382812-1.3930664,1.3310547-1.3930664.0620117,0,.1240234.0307617.1240234.1235352,0,.3408203-2.7246094,6.9663086-15.5419922,15.9443359-.371582.2480469-1.8574219,1.6411133-2.2602539,1.6411133-.6806641,0-.9902344-.4951172-1.7646484-1.9194336Zm7.5234375-15.7587891c0,.7119141-.4951172,1.3930664-.9907227,1.3930664-.340332,0-.4951172-.1235352-1.6098633-1.4550781-.8359375-.9907227-1.9194336-1.4238281-2.6625977-1.640625-.1240234-.03125-.4643555-.1240234-.4643555-.2167969s.8666992-.5883789,2.3837891-.5883789c3.34375,0,3.34375,2.4150391,3.34375,2.5078125Z"/>
        <path class="cls-3" d="m155.8439941,53.125c.6191406.0927734,1.300293.1235352,1.9506836.1235352,2.7553711,0,11.9501953-1.4550781,12.8173828-1.7954102.2167969-.0927734,1.0834961-.7124023,1.2695312-.7124023.7119141,0,3.652832,2.972168,3.652832,4.0249023,0,.2167969,0,.5576172-1.0834961.8051758-1.0834961.2167969-5.8203125,1.9501953-6.4707031,2.8173828-.371582.5263672-.4951172.8979492-1.5786133,3.9628906-.5576172,1.6098633-2.3222656,6.5327148-7.8022461,9.5664062-1.0214844.5576172-1.9194336.8979492-2.1362305.8979492-.1235352,0-.1855469-.0620117-.1855469-.1547852s.0620117-.1547852.6191406-.5883789c1.7338867-1.269043,3.8701172-3.0957031,5.5419922-5.7583008,1.7026367-2.7246094,2.3217773-5.355957,2.3217773-6.7802734,0-.6811523-.1240234-1.2695312-.4023438-1.8266602-.2475586-.4956055-.2788086-.5571289-.2788086-.6811523,0-.2475586.4643555-.2788086.6503906-.2788086.5263672,0,.8974609.03125,1.671875.2788086.1855469.0620117,1.0214844.4023438,1.2070312.4023438.8671875,0,3.8393555-2.972168,3.8393555-3.7768555,0-.2167969-.1860352-.4643555-.5883789-.4643555-.4951172,0-6.0991211.4331055-11.0527344,1.9194336-.4335938.1235352-2.1982422.8979492-2.6005859.8979492-.7431641,0-3.1577148-1.9814453-3.1577148-3.0654297,0-.0615234.0615234-.1235352.2163086-.1235352.0932617,0,1.331543.2783203,1.5791016.3095703Z"/>
        <path class="cls-3" d="m191.9436035,56.7783203c-.4335938.0620117-.7431641.3095703-1.5483398,1.3623047-1.7333984,2.3525391-3.8076172,5.1391602-6.5634766,7.2753906-.4023438.3095703-1.3623047,1.0527344-1.7333984,1.0527344-.0620117,0-.1240234,0-.1240234-.0620117s1.5791016-2.012207,1.8574219-2.4150391c.5883789-.8046875,3.6845703-5.1083984,4.9536133-8.4521484.402832-1.0522461.4335938-1.1762695.5883789-1.1762695.3095703,0,2.5078125,1.1147461,2.9414062,1.3623047.371582.2167969.5263672.5263672.4023438.7739258-.0927734.2167969-.2167969.2167969-.7739258.2788086Zm6.9038086-8.8549805c0,.2480469-.1235352.3408203-.5878906.7431641-.2480469.1860352-.402832.4956055-.4335938,1.2382812-.0927734,1.8266602-.1240234,3.715332-.1240234,5.5732422,0,2.7241211,0,13.4057617-.0307617,14.4892578,0,.9907227-.0620117,2.4145508-1.4243164,3.4052734-.8359375.6196289-1.7954102.8359375-2.1982422.8359375q-.1547852,0-.4951172-.9287109c-.371582-.9594727-.6811523-1.1762695-2.043457-1.9194336-.371582-.2167969-.6499023-.371582-.6499023-.4951172,0-.1240234.1855469-.1240234.340332-.1240234.371582,0,1.9814453.1547852,2.3222656.1547852.7119141,0,1.5166016-.1240234,1.7646484-.9599609.2167969-.7739258.2167969-8.6376953.2167969-10,0-5.5419922-.1240234-9.628418-.1860352-11.8574219,0-.1860352-.1240234-.9599609-.1240234-1.1455078,0-.1860352.2167969-.2167969.3408203-.2167969.2475586,0,1.2382812.2167969,1.5478516.2783203.8051758.1547852,1.7646484.371582,1.7646484.9287109Zm9.9384766,18.1738281c-.6811523,0-.7124023-.0307617-2.1362305-2.6005859-1.5791016-2.8173828-3.715332-5.8515625-5.1704102-7.2446289-.2788086-.2788086-.5571289-.6191406-.5571289-.7739258,0-.1240234.1235352-.1240234.1855469-.1240234.7119141,0,8.7924805,4.7060547,8.7924805,8.8544922,0,.3408203,0,1.8886719-1.1142578,1.8886719Z"/>
        <path class="cls-3" d="m237.6721191,55.9731445c1.4858398,0,1.640625,0,2.0742188-.7119141.6191406-1.0219727.8051758-1.2075195,1.0834961-1.2075195.371582,0,2.5078125,2.043457,2.5078125,2.2910156,0,.4643555-.5883789.4643555-1.640625.4643555h-8.2045898c-.8359375,0-.8666992.5263672-.8666992.9907227,0,.371582,0,3.9936523.0927734,4.1796875.1855469.4023438.6191406.4023438.8046875.4023438h5.8515625c1.4550781,0,1.6098633,0,1.9814453-.4951172.9907227-1.3623047,1.1147461-1.5170898,1.4863281-1.5170898.5263672,0,2.6625977,2.1049805,2.6625977,2.4150391,0,.4331055-.6196289.4331055-1.6411133.4331055h-10.3408203c-.8046875,0-.8974609.4335938-.8974609.9287109,0,.9907227.0307617,5.2944336.0307617,6.1923828,0,1.0214844-.0307617,2.1669922-1.3310547,3.2197266-.7744141.5883789-1.5483398.7119141-2.074707.7119141-.4951172,0-.4951172-.0620117-.6191406-.9287109-.1235352-.6811523-1.2382812-1.3310547-2.3217773-1.7646484-.0932617-.03125-.2788086-.1240234-.2788086-.2167969,0-.1547852.1855469-.1547852.2788086-.1547852,3.2197266,0,3.5600586,0,3.8081055-.4335938.2475586-.4331055.3095703-.7119141.3095703-6.6254883,0-.340332,0-.9287109-.8671875-.9287109h-6.7490234c-2.6938477,0-3.5913086.0620117-3.9008789.0620117-.0932617.0307617-.5576172.0927734-.6503906.0927734-.1240234,0-.1855469-.0927734-.2788086-.2167969l-.5878906-.7119141c-.1240234-.1240234-.1547852-.1547852-.1547852-.1855469,0-.0620117.0620117-.0932617.1235352-.0932617.2167969,0,1.1767578.1240234,1.3623047.1240234,1.5170898.0620117,2.7866211.0927734,4.2416992.0927734h6.5942383c.1860352,0,.6191406,0,.8051758-.371582.0927734-.1855469.0927734-3.8081055.0927734-4.2104492,0-.4335938-.0307617-.9907227-.8979492-.9907227h-4.8295898c-2.6933594,0-3.5913086.03125-3.9008789.0620117-.0927734,0-.5576172.0927734-.6503906.0927734-.1235352,0-.1855469-.0927734-.2783203-.2167969l-.5883789-.7119141c-.0620117-.0620117-.1547852-.1547852-.1547852-.1860352,0-.0615234.0620117-.0927734.1240234-.0927734.2163086,0,1.1762695.1240234,1.3618164.1240234,1.5170898.0927734,2.7866211.0927734,4.2416992.0927734h4.6748047c.8671875,0,.8671875-.5571289.8671875-.9594727,0-4.5205078,0-4.644043-1.1147461-4.644043-.340332,0-3.7768555.1547852-4.4892578.1547852-.4951172,0-4.8295898-.03125-4.8295898-.402832,0-.0927734,1.0527344-.1855469,1.2695312-.2167969,4.1791992-.340332,10.6499023-1.0214844,14.1484375-2.2910156.7431641-.2783203.9907227-.4023438,1.9506836-.8974609.0620117-.03125.2167969-.0932617.3095703-.0932617.1855469,0,1.4550781,1.0219727,1.7338867,1.2387695,1.0522461.7426758,1.1142578.7739258,1.1142578,1.0214844,0,.5263672-.340332.5571289-2.7861328.7119141-.7744141.03125-4.0561523.3095703-4.644043.6503906-.4956055.2788086-.4956055.5883789-.4956055,3.2817383,0,2.1982422,0,2.4458008.8979492,2.4458008h4.1796875Z"/>
        <path class="cls-3" d="m260.1179199,54.6420898c-.4643555,0-.6499023.0615234-.8046875.2783203-.1547852.2480469-.1547852,3.9628906-.1547852,4.2109375,0,.4023438,0,.6806641.371582.6806641.5263672,0,3.2197266-1.0834961,3.5600586-1.0834961.0932617,0,.1240234.0620117.1240234.1547852,0,.371582-1.7338867,1.2387695-3.0649414,1.9199219-.5883789.3095703-.9907227.5878906-.9907227,1.7333984,0,.7431641.1235352,7.1826172.1235352,8.2045898,0,3.34375-2.7241211,3.684082-3.1269531,3.684082-.2167969,0-.2475586-.1547852-.340332-.4951172-.1860352-.8051758-.7124023-1.2075195-1.5791016-1.703125-.0307617,0-1.0214844-.5878906-1.0214844-.6191406,0-.0927734.2475586-.0927734.2783203-.0927734.8359375,0,2.3842773,0,2.5390625-.0307617.6811523-.0620117.8666992-.2167969.8974609-.8671875.0620117-1.4858398.1240234-2.7553711.1240234-4.6748047,0-.4643555.0307617-2.5385742.0307617-2.8793945-.0307617-.340332-.0927734-.4951172-.2475586-.4951172-.371582,0-2.9101562,1.5478516-3.0341797,1.5478516-.1855469,0-.6499023-.7431641-.8666992-1.1147461-.0620117-.0927734-.7431641-1.1762695-.7431641-1.2075195,0-.1235352.0932617-.1235352.7739258-.1547852.8979492-.0307617,3.1582031-.6806641,3.5297852-.8046875.4951172-.1860352.6499023-.371582.6499023-1.5791016,0-.4643555.0620117-2.5078125.0620117-2.940918,0-1.4550781,0-1.703125-.9907227-1.703125-.7431641,0-2.1362305,0-2.8173828.1240234-.0620117,0-.3095703.0620117-.371582.0620117-.0927734,0-.1547852-.0932617-.2475586-.2167969l-.4951172-.7124023q-.0932617-.1547852-.0932617-.1855469c0-.0620117,0-.0927734.0932617-.0927734.1235352,0,.8046875.0927734.9287109.0927734.2475586.0307617,2.7861328.1240234,3.0649414.1240234.5263672,0,.9907227-.03125.9907227-.9287109,0-.1860352-.0927734-4.8608398-.0927734-4.9848633-.03125-.2167969-.1547852-1.1147461-.1547852-1.300293,0-.1240234,0-.2788086.1855469-.2788086.0927734,0,2.8793945.5263672,2.8793945,1.1147461,0,.1240234-.4956055.5883789-.5571289.7119141-.2480469.5263672-.2480469.9599609-.2480469,4.7060547,0,.8359375.2167969.9599609.9291992.9599609.2163086,0,.4331055,0,.9287109-.5883789.7426758-.8979492.8359375-.9907227,1.0527344-.9907227.3710938,0,1.8266602,1.7026367,1.8266602,1.9814453,0,.4023438-.2788086.4335938-1.3935547.4335938h-2.5078125Zm18.1425781-4.4892578c0,.371582-.340332.4023438-1.300293.5263672-1.3623047.1547852-7.987793,1.300293-9.5043945,1.4238281-.8671875.0620117-.8979492.371582-.8979492,1.1767578,0,1.8574219,0,2.0742188.4643555,2.3217773.7431641.4335938,2.7246094.4335938,5.015625.4335938,4.7675781,0,5.5415039-.4956055,6.1611328-2.012207.1235352-.3408203.6191406-2.1054688.6806641-2.1054688.1240234,0,.5576172,2.1054688.7124023,2.4765625.0927734.1547852.5883789,1.0219727.5883789,1.2695312,0,.7431641-1.4863281,1.5170898-2.5390625,1.7958984-.9287109.2475586-4.9223633.4331055-6.0991211.4331055-5.3867188,0-6.7490234-.4951172-6.9350586-2.012207-.0620117-.4643555-.0927734-3.1889648-.0927734-4.7988281,0-.6191406-.1547852-3.6533203-.1547852-4.3344727,0-.2167969.0307617-.2475586.2475586-.2475586.4335938,0,1.7646484.2167969,2.0126953.2475586.3710938.0620117.8359375.1240234.8359375.5263672,0,.1547852-.6196289.6499023-.7124023.7739258-.1855469.2475586-.1855469,2.1054688-.1855469,2.5698242,0,.7431641,0,.9287109.4331055.9287109.8979492,0,4.7680664-1.4550781,6.4091797-2.2910156.340332-.1855469,1.8881836-1.5170898,1.9194336-1.5478516.2167969-.03125,2.940918,2.012207,2.940918,2.4458008Zm-10,21.9194336c-.8359375,0-.8666992.5263672-.8666992.9291992-.03125.9287109-.8359375,1.3930664-1.6411133,1.3930664-.7431641,0-.7431641-.7124023-.7431641-.9907227,0-.2167969.0932617-1.1767578.0932617-1.3623047.0620117-1.1147461.0620117-2.043457.0620117-3.34375,0-2.3217773,0-4.7368164-.0932617-7.027832,0-.1860352-.0620117-.9599609-.0620117-1.1147461,0-.2167969,0-.4951172.1860352-.4951172.2475586,0,1.2695312.5878906,1.4858398.6811523.402832.1547852.8671875.2167969,1.331543.2167969h6.7182617c.1855469,0,.4335938,0,.7739258-.1860352.2475586-.1240234,1.1455078-.8979492,1.3930664-.8979492.5576172,0,1.9506836,1.2387695,1.9506836,1.6098633,0,.1860352-.1240234.371582-.4643555.7124023-.4643555.4643555-.4335938.6499023-.4335938,2.1049805,0,3.5605469.03125,4.7060547.03125,5.4799805.0307617.2788086.1235352,2.6005859.1235352,2.7246094,0,1.1762695-1.0834961,1.5478516-1.5786133,1.5478516-.7431641,0-.7431641-.5878906-.7431641-1.0214844,0-.371582,0-.9599609-.8671875-.9599609h-6.65625Zm6.6875-6.1606445c.5263672,0,.8979492-.1860352.8979492-.8359375,0-3.3129883-.0932617-3.3129883-.9291992-3.3129883h-6.6870117c-.4956055,0-.7431641.1860352-.8359375.5571289-.03125.0620117-.03125,2.5390625-.03125,2.7558594,0,.4951172.2167969.8359375.8671875.8359375h6.7182617Zm0,5.324707c.8666992,0,.9287109,0,.9287109-3.5600586,0-.5883789-.1547852-.9287109-.9287109-.9287109h-6.7182617c-.8051758,0-.8671875.4951172-.8671875.5571289v3.0341797c0,.4023438,0,.8974609.8671875.8974609h6.7182617Z"/>
      </g>
      <g>
        <path class="cls-3" d="m59.8947754,89.9101562c-.0375977.4125977-.0625.75-.0625,2.262207,0,.5498047.0249023,2.9492188.0498047,3.5488281.0126953.2250977.0878906,1.824707.0878906,1.949707,0,.7373047-.7124023.7373047-.737793.7373047-.262207,0-.512207-.1875-.512207-.449707,0-.0625.0249023-.3374023.0249023-.3999023h-5.1484375c.0249023.387207.074707.9619141-.7875977.9619141-.3999023,0-.3999023-.2871094-.3999023-.4248047,0-.9248047.0874023-5.0239258.0874023-5.8486328,0-1.0244141-.0249023-2.7119141-.199707-3.6738281l1.4248047.6870117h1.3496094c.2749023-1.1245117.387207-1.5371094.375-2.3115234l1.4746094.7119141c.074707.0375977.2124023.125.2124023.2250977,0,.1376953-.175293.2001953-.5625.2749023-.1875.1625977-.9370117.9375-1.0996094,1.0996094h3.2114258l.4125977-.4873047c.1123047-.137207.125-.1499023.1875-.1499023.012207,0,.0375869,0,.1123047.0625l.699707.5498047c.175293.1376953.2250977.2250977.2250977.3125,0,.125-.1123047.1875-.4248047.3623047Zm-1.137207-.3496094h-5.1738281v2.3994141h5.1738281v-2.3994141Zm0,2.6992188h-5.1738281v2.2368164h5.1738281v-2.2368164Zm0,2.5366211h-5.1738281v2.4619141h5.1738281v-2.4619141Z"/>
        <path class="cls-3" d="m69.5334473,89.9853516c-.0126953-.1625977-.0375977-1.637207-.050293-1.7124023-.0498047-.3745117-.1748047-.7495117-.2998047-1.0869141l1.699707.3496094c.0625.0126953.125.0625.125.1625977,0,.1875-.2626953.3623047-.375.4248047,0,.300293,0,1.5996094-.0126953,1.8623047h2.7871094l.4248047-.5375977c.0249023-.0249023.1000977-.125.1875-.125.0625,0,.074707.0253906.2124023.112793l.7124023.4995117c.0625.050293.125.1000977.125.175293,0,.1625977-.2373047.3623047-.4873047.4873047.012207.6748047-.0126953,3.6616211,0,4.2739258,0,.4248047.0996094,2.2993164.0996094,2.6743164,0,.7373047-.5620117.8374023-.7495117.8374023-.4624023,0-.4873158-.3374023-.4501953-.887207h-6.8105469c0,.3999023,0,.9746094-.7373047.9746094-.4501953,0-.4501953-.3374023-.4501953-.4750977,0-.3120117.112793-2.0493164.112793-2.4365234.0375977-2.9121094.0249023-3.2368164.0249023-3.8618164,0-1.074707-.0126953-1.7246094-.125-2.3369141l1.3994141.625h2.637207Zm-2.8618164.2998047v3.1743164h2.8618164v-3.1743164h-2.8618164Zm0,3.4741211v3.4365234h2.8618164v-3.4365234h-2.8618164Zm6.8232422-.2998047v-3.1743164h-2.8745117v3.1743164h2.8745117Zm0,3.7363281v-3.4365234h-2.8745117v3.4365234h2.8745117Z"/>
        <path class="cls-3" d="m83.2966309,89.7851562h-3.0869141c-.7749023,0-1.0371094.0253906-1.3496094.0751953l-.2124023-.449707c.762207.0625,1.6494141.074707,1.7871094.074707h1.2993164l.5-.5498047c.0751953-.0751953.1123047-.1625977.1875-.1625977.0874023,0,.1499023.0751953.2373047.1376953l.7001953.5498047c.074707.0498047.1245117.1123047.1245117.1875,0,.1123047-.1123047.137207-.1870117.137207Zm-.675293,1.574707h-1.8242188c-.762207,0-1.0375977.0249023-1.3496094.0751953l-.2001953-.4501953c.6875.0625,1.449707.0751953,1.949707.0751953l.4375-.4750977c.0625-.0625.125-.1621094.1870117-.1621094.0751953,0,.1376953.0625.237793.137207l.637207.4750977c.0625.0375977.125.1123047.125.1875,0,.1123047-.1123047.137207-.2001953.137207Zm.0625-3.1616211h-1.8242188c-.7749023,0-1.0375977.0249023-1.3496094.0874023l-.2124023-.4624023c.6870117.0625,1.4370117.0751953,1.9619141.0751953l.4746094-.4873047c.0625-.0625.125-.1625977.1875-.1625977.0874023,0,.1376953.0625.2373047.137207l.5874023.487793c.0625.0498047.125.1123047.125.1870117,0,.125-.0996094.1376953-.1875.1376953Zm.1376953,6.6733398c0,1.137207,0,1.2749023.0126953,1.6123047.012207.137207.0625.762207.0625.887207,0,.449707-.487793.5996094-.7001953.5996094-.3623047,0-.375-.3374023-.375-.6499023h-1.3994141c-.0249023.8125-.0249023,1.2373047-.7124023,1.2373047-.1000977,0-.4121094-.0375977-.4121094-.375,0-.074707.012207-.2246094.0249023-.3125.0874023-.6870117.0874023-1.7368164.0874023-2.0493164,0-.6499023,0-1.5371094-.0874023-2.1367188l1.1870117.6123047h1.1875l.3745117-.3999023c.050293-.0625.1499023-.175293.237793-.175293.0874023,0,.1875.0878906.262207.1376953l.5375977.3999023c.0498047.0375977.0996094.0874023.0996094.137207,0,.1000977-.137207.237793-.387207.4750977Zm-.2001953-1.9995117h-1.7368164c-.762207,0-1.0371094.0249023-1.3496094.0874023l-.2001953-.4624023c.6875.0625,1.4375.0751953,1.9624023.0751953l.3745117-.4624023c.0625-.0751953.112793-.1499023.2001953-.1499023.0625,0,.125.0625.2250977.137207l.5996094.4501953c.0625.0498047.125.1123047.125.1870117,0,.125-.1123047.1376953-.2001953.1376953Zm-.8120117,1.7246094h-1.3999023v2.4243164h1.3999023v-2.4243164Zm7.1733398,3.7114258c-.5874023-.199707-1.8999023-.6748047-2.9619141-1.7617188-.1875.1621094-1.9121094,1.8120117-4.1113281,1.9492188v-.074707c1.3496094-.6000977,2.6118164-1.4121094,3.5737305-2.5371094-.6621094-.949707-.8994141-1.8369141-1.0244141-2.5620117-.3500977.0126953-.5498047.0375977-.7001953.0751953l-.199707-.4624023c.762207.0625,1.637207.0751953,1.7744141.0751953h1.6499023l.4370117-.425293c.0625-.0498047.1376953-.125.2128906-.125.074707,0,.1499023.0878906.2124023.1376953l.6123047.5249023c.0625.0625.125.125.125.199707,0,.1625977-.0751953.1875-.6499023.425293-.1376953.3374023-.5,1.2246094-1.3374023,2.1992188.8374023.5498047,1.9248047,1,3.4116211,1.0996094v.0751953c-.5620232.25-.8496094.7495117-1.0244141,1.1870117Zm.5249023-6.7109375c-.300293.1503906-.5751953.175293-1.3999023.175293-1.0249023,0-1.4248047,0-1.6118164-.4873047-.0878906-.237793-.0878906-2.4619141-.0878906-2.8618164l.0126953-.112793h-1.0371094c.0371094,2.137207-.5249023,3.1870117-1.9121094,4.0991211l-.050293-.0498047c.7875977-1.137207.9873047-2.1748047.9873047-3.3242188,0-.7124023-.0874023-1.2871094-.137207-1.5996094l1.137207.574707h.9746094l.3623047-.3125c.0625-.0625.1376953-.1625977.2124023-.1625977.050293,0,.1376953.0751953.1875.125l.5625.4624023c.0625.050293.125.1000977.125.1625977s-.0375977.1499023-.0874023.1875c-.0751953.0625-.2373047.2001953-.3251953.262207-.012207.362793-.0249023,1.3623047-.0249023,1.762207,0,.1625977,0,.2998047.3374023.2998047.7373047,0,.8500977-.0371094,1.0249023-.5620117.0498047-.175293.2373047-.9375.2749023-1.0874023h.0751953c.1621094.8374023.2871094,1.3623047.5873909,1.4746094.2373162.0874023.2622185.1000977.2622185.25,0,.2001953-.125.5625-.449707.7246094Zm-4.3989258,1.7124023h-.4501953c.237793.7998047.6625977,1.4746094,1.25,2.0620117.512207-.7001953.824707-1.2749023,1.012207-2.0620117h-1.8120117Z"/>
        <path class="cls-3" d="m96.9592285,89.7226562l.449707-.574707c.1000977-.125.125-.1499023.1875-.1499023.0874023,0,.199707.1000977.2373047.125l.6123047.574707c.0751953.0625.125.112793.125.1875,0,.1123047-.1000977.1376953-.1875.1376953h-4.2490234c-.762207,0-1.0371094.0249023-1.3496094.074707l-.199707-.449707c.5874023.0498047,1.1870117.074707,1.7744141.074707h2.5996094Zm-1.1000977-1.5117188l.4248047-.5625c.0751953-.1000977.112793-.1625977.1875-.1625977.0751953,0,.1503906.0751953.2250977.1376953l.6499023.5620117c.0751953.0751953.125.112793.125.2001953,0,.1123047-.1000977.125-.1875.125h-2.4121094c-.762207,0-1.0371094.0375977-1.3496094.0874023l-.2124023-.4624023c.6000977.0625,1.1875.0751953,1.7871094.0751953h.762207Zm.0126953,3.0864258l.4248047-.5874023c.0874023-.1123047.1376953-.1621094.2001953-.1621094.074707,0,.1870117.0996094.2246094.137207l.6499023.5874023c.0625.0498047.125.1123047.125.1875,0,.1123047-.1123047.137207-.199707.137207h-2.4248047c-.762207,0-1.0371094.0253906-1.3496094.0878906l-.199707-.4624023c.5874023.0498047,1.1870117.074707,1.7744141.074707h.7749023Zm.074707,1.387207l.362793-.5c.0874023-.125.137207-.1621094.1875-.1621094.0498047,0,.0625.012207.2373047.137207l.7124023.5c.0625.0375977.137207.1000977.137207.1875,0,.1123047-.1123047.137207-.1875.137207h-2.4492188c-.762207,0-1.0371094.0253906-1.3496094.0751953l-.2001953-.449707c.5874023.0498047,1.1748047.074707,1.7749023.074707h.7744141Zm.5126953,1.574707l.387207-.4873047c.050293-.0625.1625977-.1625977.2373047-.1625977.0625,0,.1875.1123047.237793.1625977l.5498047.5c.0249023.0249023.0625.074707.0625.1748047,0,.074707-.1499023.2373047-.2998047.2749023,0,.6621094,0,1.2246094.0249023,1.8618164,0,.112793.0375977.5751953.0375977.6748047,0,.487793-.3999023.6376953-.675293.6376953-.2373047,0-.4619141-.0751953-.4248047-.625h-2.0366211c0,.0874023.0249023.449707.0249023.5249023,0,.5874023-.4750977.6499023-.7001953.6499023-.1870117,0-.449707-.1000977-.449707-.4248047,0-.0625.0375977-.3500977.0498047-.3999023.0126953-.125.0375977-.487793.0375977-1.2373047,0-1.4873047-.0375977-2.2246094-.125-2.7495117l1.262207.625h1.7998047Zm-1.8994141.2998047v2.4121094h2.0366211v-2.4121094h-2.0366211Zm7.7353516-3.3867188l.5625-.7124023c.1000977-.125.125-.1621094.1875-.1621094.0498047,0,.0996094.0249023.2373047.137207l.8374023.7124023c.0625.0498047.125.1123047.125.1875,0,.1123047-.1000977.137207-.1875.137207h-2.7119141c.0249023,4.3618164.0375977,4.8491211.0625,5.5986328.0249023.5375977.0249023.6000977.0249023.7250977,0,.2998047,0,.8496094-.762207.8496094-.4375,0-.4624023-.2998047-.4624023-.4995117,0-.3125.0625-1.6875.074707-1.9624023.0253906-.7744141.0253906-1.1743164.0375977-4.7114258h-.6870117c-.7626953,0-1.0375977.0253906-1.3500977.0878906l-.199707-.4624023c.5874023.0498047,1.1870117.074707,1.7744141.074707h.4501953c-.050293-2.8369141-.050293-3.0864258-.362793-3.9990234l1.5625.375c.2124023.0498047.2749023.1000977.2749023.1748047,0,.1625977-.2749023.3125-.4375.375v3.0742188h.949707Z"/>
        <path class="cls-3" d="m112.2839355,97.2709961c.9125977-.3500977,3.9243164-1.5371094,3.9243164-4.5986328,0-1.7373047-1.1245117-3.3496094-3.5991211-3.3496094-.375,0-.625.0375977-.7871094.0625.8369141.362793,1.074707.8876953,1.074707,1.074707,0,.175293-.9248047,2.2124023-1.6123047,3.4995117-1.2998047,2.4492188-1.7246094,2.5366211-2.074707,2.5366211-.2749023,0-.4121094-.1875-.7998047-.7373047-.1748047-.25-.2246094-.2875977-.4995117-.5249023-.375-.3125-.5625-.9746094-.5625-1.449707,0-2.6865234,2.3242188-4.8735352,5.3613281-4.8735352,2.5615234,0,4.6611328,1.4746094,4.6611328,3.9487305,0,2.5996094-2.2495117,4.2490234-5.0864258,4.4990234v-.0874023Zm-4.0112305-3.7114258c0,.7998047.375,1.8745117.8374023,1.8745117.3999023,0,.887207-.9248047,1.1494141-1.4121094.3999023-.7626953,1.512207-3.0244141,1.512207-3.7744141,0-.0874023-.012207-.4248047-.4248047-.7871094-1.699707.387207-3.0742188,2.4868164-3.0742188,4.0991211Z"/>
        <path class="cls-3" d="m131.970459,97.9458008h-9.5229492c-.762207,0-1.0371094.0375977-1.3496094.0874023l-.2124023-.4624023c.762207.0751953,1.6494141.0751953,1.7871094.0751953h3.1616211c0-.8999023.0126953-4.8989258.0126953-5.7114258h-2.6870117c-.7749023,0-1.0371094.0253906-1.3623047.0878906l-.199707-.4624023c.762207.0625,1.6494141.074707,1.7871094.074707h2.4619141c.012207-2.7866211-.050293-3.2114258-.3251953-4.0615234l1.7373047.4375c.074707.0126953.199707.0498047.199707.1625977,0,.1123047-.4121094.4248047-.4746094.5-.0126953.3994141-.0249023,1.4492188-.0249023,2.1743164v.7871094h2.3115234l.6000977-.7373047c.0625-.074707.1123047-.1625977.1875-.1625977.0874023,0,.1499023.0751953.2373047.1376953l.9375.7373047c.074707.0625.125.1123047.125.1875,0,.125-.1000977.137207-.1875.137207h-4.2114258c-.0126953.5751953-.0126953,3.1118164-.0126953,3.6245117,0,.2124023-.0126953,1.7246094-.0249023,2.0869141h3.0366211l.7124023-.7250977c.0498047-.0498047.1000977-.137207.1748047-.137207.0751953,0,.1625977.0874023.2250977.137207l.9624023.7001953c.0625.0371094.125.125.125.1875,0,.1245117-.112793.137207-.1875.137207Z"/>
        <path class="cls-3" d="m136.060791,97.1586914c-.0751953.1621094-.1748047.4248047-.3500977.4248047-.0874023,0-.1621094-.0751953-.2246094-.1748047l-.7373047-1.262207c.1621094.0249023.2749023.0371094.4248047.0371094.1748047,0,.3496094,0,1.6494141-.324707.0249023-2.4121094.0249023-2.6743164.0375977-4.1489258h-.3125c-.762207,0-1.0371094.0375977-1.3496094.0874023l-.2124023-.4624023c.7246094.0625,1.5371094.0751953,1.8745117.0751953.012207-2.637207-.0249023-2.9370117-.1376953-3.7119141l1.3496094.4501953c.0878906.0249023.1875.0874023.1875.199707,0,.2001953-.2495117.3500977-.4121094.4375-.0249023.5498047-.0249023,1.7495117-.0249023,2.6245117l.4624023-.487793c.137207-.137207.1499023-.1621094.199707-.1621094.0874023,0,.1875.0996094.2250977.137207l.4873047.4873047c.1000977.1000977.1123047.125.1123047.2001953,0,.1123047-.1123047.125-.1875.125h-1.3120117c0,1.6118164,0,1.8369141.0126953,3.8740234.8623047-.25,1.1118164-.3374023,1.4370117-.4624023l.0498047.1123047c-.7246094.5625-2.5244141,1.5874023-3.2490234,1.9248047Zm8.7475586.9873047c-.3745117.074707-2.2490234.074707-2.7739258.074707-2.137207,0-2.637207-.1748047-2.637207-1.6494141,0-.5375977.0375977-3.1494141.0375977-3.7368164-.6499023.2998047-.8496094.4248047-1.1123047.6000977l-.3745117-.3251953c.449707-.1621094.7495117-.2871094,1.4868164-.6123047-.012207-.387207-.0375977-2.2993164-.0375977-2.7241211-.012207-.5126953-.0498047-.7250977-.0874023-1l1.2246094.4125977c.2001953.0625.237793.125.237793.199707,0,.1875-.237793.3125-.3999023.3876953-.0126953.5371094-.0375977,1.1870117-.0375977,2.3120117l1.199707-.5625c.0126953-1,.0375977-3.2617188-.1123047-4.0991211l1.2368164.4248047c.1503906.050293.237793.0874023.237793.1875,0,.1499023-.050293.175293-.3999023.4248047-.0253906.7124023-.050293,1.9746094-.0375977,2.637207l.9746094-.4501953.3500977-.574707c.137207-.2250977.1875-.262207.25-.262207s.1499023.0371094.3125.1499023l.6245117.4121094c.0874023.050293.1499023.112793.1499023.2124023,0,.1875-.1875.362793-.2998047.4750977.0625,3.3867188.0249023,4.6240234-1.6245117,4.9736328-.0498047-.4873047-.387207-.9619141-.6875-1.2119141.0126953.1499023.0249023.887207.0249023.9873047,0,.5498047-.512207.6748047-.7119141.6748047-.2250977,0-.362793-.0751953-.362793-.4375,0-.0249023.0126953-.1499023.0126953-.3374023.0249023-.5874023.0375977-1.3125.0625-3.8491211l-1.199707.5625c0,.5498047.0126953,3.2866211.0126953,3.8989258,0,.3500977,0,.762207.3623047.8745117.1748047.0625,1.7871094.0625,2.1118164.0625,1.6494141,0,1.8369141,0,2.324707-1.9619141l.074707.0126953c.0126953.0498047.0751953,1.1494141.3623047,1.5620117.0375977.0625.3125.3125.3125.387207,0,.2626953-.387207.75-1.0874023.8876953Zm-1.0244141-7.3232422l-1.324707.6123047c.012207.887207.0375977,2.6616211.0498047,3.2988281.3374023-.012207.8125-.0249023.9873047-.1245117.3125-.1875.3125-1.387207.3125-1.824707,0-.0126953-.0126953-1.4746094-.0249023-1.9619141Z"/>
        <path class="cls-3" d="m153.2351074,88.5605469c.0874023.0625.1621094.125.1621094.2250977,0,.137207-.2124023.2124023-.5371094.3125-.875,1.8745117-2.8491211,3.6113281-3.9863281,4.1362305l-.0625-.0625c.9619141-1.0996094,2.1240234-2.5742188,2.8115234-4.0737305.2998047-.6499023.3623047-.9624023.4248047-1.3496094l1.1875.8120117Zm-.8125,3.8618164c-.762207,0-1.0371094.0249023-1.3496094.0874023l-.2001953-.4624023c.75.0625,1.637207.074707,1.7749023.074707h3.5488281l.4125977-.3623047c.1123047-.1000977.1748047-.125.2373047-.125.050293,0,.125.050293.1875.112793l.5498047.6245117c.0751953.0874023.125.1499023.125.2001953,0,.125-.1499023.2373047-.387207.3999023-.0126953.8496094-.1123047,3.2739258-.449707,4.1738281-.3876953,1.0625-1.1748047,1.2871094-2.3374023,1.3999023-.0498047-.7373047-.4873047-1.1625977-.9370117-1.5874023l.0375977-.074707c.699707.2246094,1.1621094.2871094,1.4746094.2871094.5371094,0,.7749023-.0625.9873047-1.2993164.1875-1.1123047.199707-3.0244141.1875-3.4492188h-2.2744141c-.050293,2.8364258-1.9370117,5.5610352-5.0239258,5.9360352l-.0249023-.0751953c3.1992188-1.4873047,3.8740234-3.9365234,3.9487305-5.8608398h-.4873047Zm2.7246094-4.2368164c-.7626953,0-1.0375977.0375977-1.3500977.0874023l-.199707-.4619141c.7246094.074707,1.5620117.074707,1.8369141.074707l.5-.4873047c.0751953-.0625.125-.125.199707-.125.0878906,0,.125.0375977.2128906.125l.4995117.512207c.0751953.0874023.112793.125.112793.1875,0,.1499023-.2875977.2998047-.7875977.4125977.5874023,1.5244141,2.574707,3.0991211,4.5742188,3.3115234l.0249023.1376953c-.824707.3120117-1.0625.7495117-1.262207,1.0996094-2.574707-1.0874023-3.5869141-4.3364258-3.7368164-4.8740234h-.6245117Z"/>
        <path class="cls-3" d="m165.7858887,89.7353516l.3496094-.4125977c.112793-.125.125-.1499023.1875-.1499023.0751953,0,.1875.0751953.237793.125l.4370117.4125977c.0878906.0874023.125.1123047.125.199707,0,.112793-.0996094.125-.1875.125h-2.4990234c-.762207,0-1.0375977.0375977-1.3496094.0874023l-.2124023-.4624023c.5996094.050293,1.1870117.0751953,1.7866211.0751953h1.125Zm2.8618164,4.8486328c-.762207,0-1.0371094.0375977-1.3496094.0874023l-.2001953-.4619141c.7373047.074707,1.5498047.074707,1.9370117.074707v-1.1245117c-.5620117,0-.8120117.012207-1.2119141.0874023l-.2001953-.4624023c.5498047.0498047.875.0625,1.4121094.0625v-.9873047c-.7749023,0-1.0996094,0-1.5371094.0874023l-.199707-.4624023c.4873047.0375977,1.2246094.0751953,1.7368164.0751953,0-.4873047-.0249023-.7373047-.074707-1.1875-.125.0625-.7626953.375-2.074707.6875l-.0249023-.0874023c.949707-.6123047,1.5869141-1.0874023,2.0996094-1.824707l.762207.637207c.0375977.0375977.137207.175293.137207.2626953,0,.1499023-.1748047.1499023-.2373047.1499023-.125,0-.137207,0-.3623047.0126953-.125.074707-.1499023.0874023-.2749023.1499023l.9873047.324707c.2373047.0751953.2871094.0874023.2871094.2124023,0,.0625,0,.1000977-.3120117.3500977v.3125h1.1245117c0-.2626953,0-.6376953-.1499023-1.2250977l1.0498047.3125c.1499023.050293.2749023.0751953.2749023.237793,0,.1123047-.1875.2495117-.2749023.324707v.3500977h.637207l.25-.425293c.0249023-.0498047.125-.1621094.199707-.1621094.0625,0,.175293.1000977.2250977.137207l.4375.4248047c.1000977.1000977.125.125.125.1875,0,.112793-.1000977.1376953-.1875.1376953h-1.6870117v.9995117h.5249023l.2871094-.3623047c.1000977-.125.125-.1499023.1875-.1499023s.0751953.0126953.237793.125l.4873047.3623047c.012207.0126953.125.0874023.125.1875,0,.125-.112793.1376953-.2001953.1376953h-1.6494141v1.1245117h.7749023l.4624023-.512207c.1245117-.1376953.137207-.1499023.199707-.1499023.0751953,0,.1748047.074707.2250977.125l.4624023.512207c.074707.074707.125.137207.125.199707,0,.112793-.1000977.125-.1875.125h-1.2749023l.7373047.5625c.2001953.1625977.2001953.2250977.2001953.2875977,0,.137207-.1000977.2373047-.2749023.2373047-.0751953,0-.1875-.0249023-.2124023-.0375977-.237793.0625-1.2373047.3125-1.449707.3500977.7998047.7749023,1.6992188,1.1748047,2.8242188,1.3623047v.074707c-.5249023.2250977-.762207.4248047-1.0996094.9375-1.5371094-.6748047-2.3994141-2.1123047-2.887207-3.7744141h-.2246094c-.3623047.375-.5375977.5126953-.7124023.6499023v1.6621094c.824707-.2246094,1.2373047-.3999023,1.4746094-.512207l.0498047.0874023c-.2373047.1748047-.6245117.4750977-1.4370117.9624023-.4624023.2749023-1.137207.6748047-1.3745117.824707-.0751953.2749023-.0874023.3374023-.2250977.3374023-.074707,0-.1748047-.0498047-.2373047-.1499023l-.7124023-1.1621094c.1376953.012207.2749023.0371094.449707.0371094.2001953,0,.3500977-.012207,1.1000977-.1875v-1.2368164c-1,.637207-1.7373047.8623047-2.0371094.949707,0,.074707.0375977.449707.0375977.5249023,0,.375-.2875977.6123047-.6376953.6123047-.25,0-.3745117-.1000977-.3745117-.375v-.1748047h-1.2124023c.0625.5498047-.0375977.9995117-.574707.9995117-.487793,0-.487793-.2373047-.487793-.4248047,0-.0498047.050293-2.3369141.050293-2.7744141,0-.375-.0126953-1.0996094-.1000977-1.4243164l1.2495117.6123047h.9624023l.375-.4375c.0498047-.0625.137207-.1499023.2124023-.1499023.0498047,0,.1123047.0498047.1625977.0874023l.5498047.4746094c.0874023.0751953.0874023.125.0874023.175293,0,.1123047,0,.125-.324707.449707,0,1.199707,0,1.324707.012207,1.6621094.5751953-.4248047,1.8369141-1.5244141,2.2871094-2.0996094h-.3374023Zm-2.9116211-3.6616211c.137207-.137207.1748047-.1499023.2246094-.1499023.0625,0,.1625977.0874023.2001953.1376953l.3623047.387207c.074707.0874023.125.125.125.1875,0,.1123047-.1123047.1376953-.1875.1376953h-1.449707c-.762207,0-1.0371094.0249023-1.3496094.074707l-.2124023-.449707c.8120117.0625,1.699707.074707,1.8618164.074707l.425293-.3999023Zm-.050293-3.1367188c.1123047-.137207.1376953-.1621094.2001953-.1621094.0371094,0,.1748047.0874023.2373047.125l.512207.3496094c.0249023.0126953.125.1000977.125.1875,0,.125-.1123047.1376953-.1875.1376953h-1.5371094c-.762207,0-1.0371094.0249023-1.3496094.074707l-.2124023-.449707c.75.0625,1.5620117.074707,1.9370117.074707l.2749023-.3374023Zm.0126953,4.7988281c.0249023-.0371094.1123047-.1621094.1875-.1621094.0625,0,.1621094.0874023.2246094.137207l.4375.3876953c.0874023.0874023.125.1245117.125.199707,0,.1123047-.1000977.125-.1875.125h-1.449707c-.762207,0-1.0371094.0375977-1.3496094.0874023l-.2124023-.4624023c.75.0751953,1.5620117.0751953,1.9370117.0751953l.2875977-.3876953Zm-1.1748047,2.137207v2.4116211h1.2124023v-2.4116211h-1.2124023Zm7.9731445-5.9487305l.375-.5c.1123047-.1499023.1621094-.1499023.199707-.1499023.0625,0,.1748047.0878906.2250977.125l.5249023.5c.0996094.1000977.125.125.125.2001953,0,.1123047-.1000977.1245117-.1875.1245117h-4.8237305c-.7626953,0-1.0375977.0375977-1.3500977.0878906l-.2124023-.4624023c.6000977.0625,1.1875.074707,1.7871094.074707h.8500977c-.0253906-.9619141-.0751953-1.0996094-.25-1.4746094l1.387207.2998047c.0996094.0253906.2124023.0878906.2124023.2128906,0,.1499023-.1499023.2495117-.3251953.3496094v.6123047h1.4624023Zm-2.5493164,3.0869141v.9995117h1.1245117v-.9995117h-1.1245117Zm1.1245117,2.4243164v-1.1245117h-1.1245117v1.1245117h1.1245117Zm-.262207.2998047c.2246094.5249023.512207.9248047.7744141,1.2124023.1000977-.1000977.7749023-.7246094,1.012207-1.2124023h-1.7866211Zm.262207-5.1733398c1.4121094-.0751953,2.6621094.4746094,2.6621094,1.1118164,0,.3251953-.3500977.4501953-.4750977.4501953-.2124023,0-.2875977-.0751953-.9746094-.6875-.1376953-.1123047-.6123047-.5371094-1.2373047-.7998047l.0249023-.074707Z"/>
        <path class="cls-3" d="m187.0339355,92.8847656h-.4624023c-.6245117,0-.7373047.7119141-.7871094,1.0244141-.1625977.9873047-.2626953,1.5996094-1.0625,2.5371094.5126953.5996094.9248047.7246094,1.2373047.7246094.5498047,0,.9125977-.387207,1.0625-.5620117l.2749023.2871094c-.375.3999023-.9248047.9746094-1.949707.9746094-.7495117,0-1.2119141-.4121094-1.4995117-.699707-1.1499023.6875-2.1621094.7373047-2.6367188.7373047-1.699707,0-2.9868164-1.0869141-2.9868164-2.3120117,0-.4873047.1621094-1.7368164,2.5244141-2.9614258-.3251953-.7001953-.5874023-1.375-.5874023-2.0244141,0-1.0375977.637207-2.2871094,2.3242188-2.2871094,1.199707,0,1.8994141.6875,1.8994141,1.6870117,0,1.3745117-1.2495117,1.9746094-2.3115234,2.4492188.512207.9624023,1.6367188,2.824707,2.3618164,3.6870117.2373047-.2875977.8745117-1.0498047.8745117-2.2373047,0-.8745117-.5249023-1.0244141-.7744141-1.0244141h-.3999023v-.3999023h2.8989258v.3999023Zm-6.1235352.0874023c-.4248047.262207-1.387207.8374023-1.387207,2.0742188,0,.9125977.6875,2.2871094,2.262207,2.2871094.8745117,0,1.3994141-.2749023,1.7246094-.449707-1.1499023-1.1625977-2.5869141-3.8867188-2.5996094-3.9116211Zm2.5869141-2.9492188c0-.5625-.3125-1.2749023-1.1245117-1.2749023-.8125,0-1.1748047.574707-1.1748047,1.199707,0,.699707.4750977,1.6870117.7124023,2.1743164.9873047-.5498047,1.5869141-1.2246094,1.5869141-2.0991211Z"/>
        <path class="cls-3" d="m196.822998,92.159668h-3.2368164l1.1499023.2998047c.0874023.0253906.1625977.0751953.1625977.1875,0,.1625977-.2998047.300293-.4248047.362793-.0126953.1499023-.0253906.824707-.0375977.9619141h.6748047l.5625-.512207c.125-.1123047.1748047-.1625977.2246094-.1625977.0625,0,.1000977.0249023.2250977.125l.6621094.5249023c.0625.0498047.125.1123047.125.2001953,0,.1123047-.1123047.125-.199707.125h-2.2744141c-.0126953.199707-.0126953.3496094-.0126953.574707.875.1123047,1.7124023.4873047,1.7124023,1.2373047,0,.4370117-.375.574707-.5375977.574707-.3374023,0-.4873047-.3999023-.5371094-.5375977-.1376953-.3745117-.375-.8994141-.6376953-1.1494141,0,.4995117,0,.8745117.0126953,1.449707.012207.262207.0625,1.4492188.0625,1.6870117,0,.4746094-.4125977.5371094-.6376953.5371094-.1870117,0-.4746094-.0625-.4746094-.4248047,0-.1875.137207-2.3745117.137207-2.5493164v-.4624023c-.8496094,1.2495117-1.8242188,1.8994141-2.8364258,2.4121094l-.0751953-.1000977c.875-.7749023,1.512207-1.6870117,1.9873047-2.4370117.199707-.324707.3745117-.637207.449707-.8120117h-.3374023c-.762207,0-1.0371094.0371094-1.3496094.0874023l-.2001953-.4624023c.762207.074707,1.637207.074707,1.7749023.074707h.5996094c.0249023-1.1621094-.0126953-1.324707-.137207-1.8120117h-.7875977c-.762207,0-1.0371094.0249023-1.3496094.0874023l-.2124023-.4624023c.762207.0625,1.6494141.0751953,1.7871094.0751953h1.4619141c.4501953-.9873047.6748047-1.8496094.6499023-2.6494141h-1.9243164c-.7626953,0-1.0375977.0249023-1.3496094.0874023l-.2001953-.4624023c.75.0625,1.637207.0751953,1.7744141.0751953h.487793c-.0126953-.625-.0126953-1.0625-.2128906-1.7495117l1.4248047.3745117c.1000977.0253906.1875.0625.1875.175293,0,.199707-.25.2871094-.4248047.3496094,0,.1376953-.0126953.7250977-.0126953.8500977h.4750977l.512207-.5751953c.125-.137207.1376953-.1499023.2001953-.1499023.0498047,0,.0996094.0126953.2246094.125l.6625977.5751953c.074707.0625.125.1123047.125.1870117,0,.125-.112793.1376953-.1875.1376953h-1.7246094l1.1870117.6748047c.0874023.0498047.1625977.1123047.1625977.2373047,0,.175293-.125.2001953-.449707.2626953-.25.324707-.6875.8623047-1.387207,1.4746094h.9619141l.4501953-.5249023c.125-.1376953.137207-.1499023.199707-.1499023.0878906,0,.2124023.1123047.2250977.125l.5498047.5249023c.0751953.0625.125.1123047.125.1875,0,.125-.1000977.137207-.1875.137207Zm-3.3867188-.5371094c-.574707,0-.6499023-.5874023-.6621094-.7749023-.050293-.4375-.0874023-.6875-.4624023-1.324707l.1000977-.0874023c.7246094.3999023,1.5244141.949707,1.5244141,1.5620117,0,.2749023-.1499023.625-.5.625Zm8.7729492.1748047h-1.7871094c0,.4873047.0126953,1.7246094.0375977,3.5864258.0126953.375.0751953,2.2119141.0751953,2.6245117,0,.2001953-.0253906.2875977-.125.387207-.1625977.1625977-.425293.25-.6376953.25-.3496094,0-.3745117-.199707-.3745117-.3374023,0-.3623047.074707-2.9741211.074707-3.0742188v-3.4365234h-1.199707c-.1123047,2.6118164-.199707,4.6987305-3.0366211,6.5234375l-.0874023-.1123047c1.5742188-1.625,2.1616211-3.0620117,2.1616211-7.3857422,0-.7749023-.0249023-2.4370117-.2373047-3.0869141l1.2246094.5996094c.7373047-.2246094,1.7749023-.6245117,2.1621094-1.199707l1.012207.9375c.0751953.0625.1000977.1499023.1000977.2250977,0,.0498047-.0375977.137207-.2250977.137207-.1000977,0-.199707-.0249023-.4746094-.1000977-.9125977.237793-2.1621094.2875977-2.5620117.2753906,0,.8745117-.0126953,1.9243164-.0375977,2.8867188h2.1870117l.5874023-.6875c.125-.1499023.137207-.1625977.199707-.1625977.0751953,0,.1875.1000977.2250977.1376953l.7998047.6870117c.0498047.050293.125.112793.125.1875,0,.1376953-.125.1376953-.1875.1376953Z"/>
        <path class="cls-3" d="m215.9841309,95.1962891h-4.5112305c.4873047.675293,2.0996094,1.9121094,4.6362305,1.8999023v.0996094c-.762207.2753906-1.0620117.8999023-1.199707,1.199707-2.3242188-.824707-3.4487305-2.3491211-3.7241211-3.1865234-.012207.6123047,0,1.2871094.0253906,2.1118164,0,.112793.0249023.7001953.0249023.8251953,0,.387207-.3500977.5498047-.7124023.5498047-.3125,0-.4248047-.1875-.4248047-.4501953,0-.2998047.1000977-1.9746094.1123047-2.3491211-.762207.7871094-2.7490234,2.1992188-4.6987305,2.4868164l-.0625-.0751953c1.5869141-.8369141,3.2617188-2.2617188,3.9990234-3.1118164h-2.7744141c-.8745117,0-1.1123047.050293-1.3496094.0878906l-.2124023-.4624023c.5874023.0625,1.1870117.074707,1.7871094.074707h3.3115234c-.0249023-.762207-.0375977-1.0371094-.199707-1.3369141-.5751953.3120117-.9750977.387207-1.324707.4624023l-.0249023-.0878906c1.3496094-.6494141,1.8618164-1.8867188,1.8618164-2.7739258,0-.2001953-.0249023-.362793-.0625-.5l-.0751953.0498047-.0498047-.0375977c.2001953-.3374023,1.3120117-2.5864258,1.2124023-3.4990234l1.1494141.5751953c.0874023.0371094.1376953.1123047.1376953.1870117,0,.1000977-.050293.125-.375.2875977-.1499023.25-.262207.4248047-.4248047.6748047h2.0117188l.425293-.5874023c.074707-.0996094.125-.1621094.199707-.1621094.050293,0,.1000977.0371094.2250977.137207l.7124023.5874023c.0498047.0375977.125.1123047.125.1875,0,.137207-.112793.137207-.1875.137207h-2.824707c.5874023.1625977,1.2001953.3876953,1.2001953.9125977,0,.1499023-.0878906.4375-.362793.5498047l.362793.2875977c.0620117.0498047.1123047.0996094.1123047.2124023,0,.0249023,0,.0625-.0625.125-.0375977.0371094-.25.2373047-.2875977.2871094-.0249023.5-.0375977.6625977-.0375977.8374023s-.012207.375.0253906.4624023c.0371094.1123047.0625.1123047.762207.1123047.574707,0,.6621094-.1875.9995117-1.324707h.0751953c.0126953.2749023.074707.7749023.375,1.0126953q.2749023.2246094.2749023.3120117c0,.125-.0625.300293-.25.487793-.3374023.3496094-.6625977.3994141-1.3999023.3994141-1.5742188,0-1.7617188,0-1.7617188-1.0869141,0-.4375.0625-1.3999023.0874023-1.637207h-1.3999023c-.012207.324707-.0249023.5-.074707.7124023.1123047.0249023,1.262207.262207,1.262207,1.012207,0,.2998047-.1875.4873047-.4501953.4873047-.3374023,0-.387207-.2124023-.4624023-.512207-.0371094-.1376953-.137207-.5625-.387207-.8623047-.1123047.3623047-.3374023.9746094-1.199707,1.512207l1.1748047.3496094c.0625.0126953.1748047.050293.1748047.175293s-.0498047.1748047-.2373047.3623047c-.0249023.2749023-.0249023.375-.0375977.512207h3.1865234l.5625-.6748047c.112793-.137207.125-.1625977.1875-.1625977.0874023,0,.1499023.0625.2250977.1376953l.6870117.6875c.0751953.074707.125.1123047.125.1875,0,.1245117-.125.1245117-.1875.1245117Zm-5.8359375-4.0112305h-1.574707v1.4248047c.75-.1376953.949707-.175293,1.324707-.2626953v.1000977c-.6245117.375-2.4741211,1.1245117-3.3740234,1.4995117-.1123047.2124023-.1625977.2998047-.2749023.2998047-.0249023,0-.125,0-.1875-.1123047l-.5996094-1.2246094c.199707.0375977.3374023.0498047.4995117.0498047.3500977,0,1.2998047-.137207,1.699707-.199707v-1.574707h-.699707c-.0625,0-.2998047,0-.5751953.0375977l-.199707-.375c.4624023.0249023.9121094.0375977.9995117.0375977h1.762207l.3500977-.4501953c.0874023-.125.137207-.1621094.1875-.1621094.074707,0,.1875.0874023.2373047.137207l.4873047.449707c.0874023.0878906.125.112793.125.1875,0,.125-.1123047.1376953-.1875.1376953Zm.2250977-1.9746094h-2.3994141c.2749023.0874023,1.1870117.387207,1.1870117,1.012207,0,.2998047-.2246094.5375977-.4873047.5375977-.3496094,0-.449707-.300293-.5371094-.6000977-.0878906-.2998047-.2875977-.6870117-.5625-.949707-.6000977.6875-1.125,1.137207-1.9619141,1.637207l-.0375977-.050293c.6875-.9248047,1.3496094-1.8242188,1.8618164-2.9741211.112793-.262207.125-.3999023.112793-.699707l1.1870117.637207c.0625.0375977.1376953.125.1376953.1748047,0,.112793-.0375977.125-.487793.2875977-.2124023.2626953-.3374023.4248047-.5498047.6875h1.2250977l.387207-.4873047c.0874023-.112793.137207-.1503906.199707-.1503906.0375977,0,.1000977.0126953.2250977.125l.574707.487793c.050293.0498047.125.1123047.125.1870117,0,.125-.125.1376953-.199707.1376953Zm2.3867188.7246094c-.2124023-.4121094-.3623047-.5620117-.5371094-.7373047h-.3999023c-.2875977.4125977-.6499023.875-1.2749023,1.387207l.7124023.2626953h1.387207l.387207-.3500977c-.0498047-.074707-.2246094-.4746094-.2749023-.5625Z"/>
        <path class="cls-3" d="m223.5490723,88.5605469c.0874023.0625.1621094.125.1621094.2250977,0,.137207-.2124023.2124023-.5371094.3125-.875,1.8745117-2.8491211,3.6113281-3.9868164,4.1362305l-.0620117-.0625c.9619141-1.0996094,2.1240234-2.5742188,2.8115234-4.0737305.2998047-.6499023.3623047-.9624023.4248047-1.3496094l1.1875.8120117Zm-.8125,3.8618164c-.762207,0-1.0371094.0249023-1.3496094.0874023l-.199707-.4624023c.7495117.0625,1.6367188.074707,1.7744141.074707h3.5488281l.4125977-.3623047c.1123047-.1000977.1748047-.125.2373047-.125.050293,0,.125.050293.1875.112793l.5498047.6245117c.0751953.0874023.125.1499023.125.2001953,0,.125-.1499023.2373047-.387207.3999023-.0126953.8496094-.1123047,3.2739258-.4501953,4.1738281-.387207,1.0625-1.1743164,1.2871094-2.3369141,1.3999023-.0498047-.7373047-.4873047-1.1625977-.9370117-1.5874023l.0375977-.074707c.699707.2246094,1.1621094.2871094,1.4746094.2871094.5371094,0,.7749023-.0625.9873047-1.2993164.1875-1.1123047.199707-3.0244141.1875-3.4492188h-2.2744141c-.050293,2.8364258-1.9375,5.5610352-5.0239258,5.9360352l-.0249023-.0751953c3.1992188-1.4873047,3.8740234-3.9365234,3.9487305-5.8608398h-.4873047Zm2.7246094-4.2368164c-.7626953,0-1.0375977.0375977-1.3500977.0874023l-.199707-.4619141c.7246094.074707,1.5620117.074707,1.8369141.074707l.5-.4873047c.0751953-.0625.125-.125.199707-.125.0878906,0,.125.0375977.2128906.125l.4995117.512207c.0751953.0874023.112793.125.112793.1875,0,.1499023-.2875977.2998047-.7875977.4125977.5874023,1.5244141,2.574707,3.0991211,4.5742188,3.3115234l.0249023.1376953c-.824707.3120117-1.0625.7495117-1.262207,1.0996094-2.574707-1.0874023-3.5869141-4.3364258-3.7368164-4.8740234h-.6245117Z"/>
        <path class="cls-3" d="m236.0993652,89.7353516l.3496094-.4125977c.112793-.125.125-.1499023.1875-.1499023.0751953,0,.1875.0751953.237793.125l.4370117.4125977c.0878906.0874023.125.1123047.125.199707,0,.112793-.0996094.125-.1875.125h-2.4990234c-.762207,0-1.0375977.0375977-1.3496094.0874023l-.2124023-.4624023c.5996094.050293,1.1870117.0751953,1.7866211.0751953h1.125Zm2.8618164,4.8486328c-.762207,0-1.0371094.0375977-1.3496094.0874023l-.2001953-.4619141c.7373047.074707,1.5498047.074707,1.9370117.074707v-1.1245117c-.5620117,0-.8120117.012207-1.2119141.0874023l-.2001953-.4624023c.5498047.0498047.875.0625,1.4121094.0625v-.9873047c-.7749023,0-1.0996094,0-1.5371094.0874023l-.199707-.4624023c.4873047.0375977,1.2246094.0751953,1.7368164.0751953,0-.4873047-.0249023-.7373047-.074707-1.1875-.125.0625-.7626953.375-2.074707.6875l-.0249023-.0874023c.949707-.6123047,1.5869141-1.0874023,2.0996094-1.824707l.762207.637207c.0375977.0375977.137207.175293.137207.2626953,0,.1499023-.1748047.1499023-.2373047.1499023-.125,0-.137207,0-.3623047.0126953-.125.074707-.1499023.0874023-.2749023.1499023l.9873047.324707c.2373047.0751953.2871094.0874023.2871094.2124023,0,.0625,0,.1000977-.3120117.3500977v.3125h1.1245117c0-.2626953,0-.6376953-.1499023-1.2250977l1.0498047.3125c.1499023.050293.2749023.0751953.2749023.237793,0,.1123047-.1875.2495117-.2749023.324707v.3500977h.637207l.25-.425293c.0249023-.0498047.125-.1621094.199707-.1621094.0625,0,.175293.1000977.2250977.137207l.4375.4248047c.1000977.1000977.125.125.125.1875,0,.112793-.1000977.1376953-.1875.1376953h-1.6870117v.9995117h.5249023l.2871094-.3623047c.1000977-.125.125-.1499023.1875-.1499023s.0751953.0126953.237793.125l.4873047.3623047c.012207.0126953.125.0874023.125.1875,0,.125-.112793.1376953-.2001953.1376953h-1.6494141v1.1245117h.7749023l.4624023-.512207c.1245117-.1376953.137207-.1499023.199707-.1499023.0751953,0,.1748047.074707.2250977.125l.4624023.512207c.074707.074707.125.137207.125.199707,0,.112793-.1000977.125-.1875.125h-1.2749023l.7373047.5625c.2001953.1625977.2001953.2250977.2001953.2875977,0,.137207-.1000977.2373047-.2749023.2373047-.0751953,0-.1875-.0249023-.2124023-.0375977-.237793.0625-1.2373047.3125-1.449707.3500977.7998047.7749023,1.6992188,1.1748047,2.8242188,1.3623047v.074707c-.5249023.2250977-.762207.4248047-1.0996094.9375-1.5371094-.6748047-2.3994141-2.1123047-2.887207-3.7744141h-.2246094c-.3623047.375-.5375977.5126953-.7124023.6499023v1.6621094c.824707-.2246094,1.2373047-.3999023,1.4746094-.512207l.0498047.0874023c-.2373047.1748047-.6245117.4750977-1.4370117.9624023-.4624023.2749023-1.137207.6748047-1.3745117.824707-.0751953.2749023-.0874023.3374023-.2250977.3374023-.074707,0-.1748047-.0498047-.2373047-.1499023l-.7124023-1.1621094c.1376953.012207.2749023.0371094.449707.0371094.2001953,0,.3500977-.012207,1.1000977-.1875v-1.2368164c-1,.637207-1.7373047.8623047-2.0371094.949707,0,.074707.0375977.449707.0375977.5249023,0,.375-.2875977.6123047-.6376953.6123047-.25,0-.3745117-.1000977-.3745117-.375v-.1748047h-1.2124023c.0625.5498047-.0375977.9995117-.574707.9995117-.487793,0-.487793-.2373047-.487793-.4248047,0-.0498047.050293-2.3369141.050293-2.7744141,0-.375-.0126953-1.0996094-.1000977-1.4243164l1.2495117.6123047h.9624023l.375-.4375c.0498047-.0625.137207-.1499023.2124023-.1499023.0498047,0,.1123047.0498047.1625977.0874023l.5498047.4746094c.0874023.0751953.0874023.125.0874023.175293,0,.1123047,0,.125-.324707.449707,0,1.199707,0,1.324707.012207,1.6621094.5751953-.4248047,1.8369141-1.5244141,2.2871094-2.0996094h-.3374023Zm-2.9116211-3.6616211c.137207-.137207.1748047-.1499023.2246094-.1499023.0625,0,.1625977.0874023.2001953.1376953l.3623047.387207c.074707.0874023.125.125.125.1875,0,.1123047-.1123047.1376953-.1875.1376953h-1.449707c-.762207,0-1.0371094.0249023-1.3496094.074707l-.2124023-.449707c.8120117.0625,1.699707.074707,1.8618164.074707l.425293-.3999023Zm-.050293-3.1367188c.1123047-.137207.1376953-.1621094.2001953-.1621094.0371094,0,.1748047.0874023.2373047.125l.512207.3496094c.0249023.0126953.125.1000977.125.1875,0,.125-.1123047.1376953-.1875.1376953h-1.5371094c-.762207,0-1.0371094.0249023-1.3496094.074707l-.2124023-.449707c.75.0625,1.5620117.074707,1.9370117.074707l.2749023-.3374023Zm.0126953,4.7988281c.0249023-.0371094.1123047-.1621094.1875-.1621094.0625,0,.1621094.0874023.2246094.137207l.4375.3876953c.0874023.0874023.125.1245117.125.199707,0,.1123047-.1000977.125-.1875.125h-1.449707c-.762207,0-1.0371094.0375977-1.3496094.0874023l-.2124023-.4624023c.75.0751953,1.5620117.0751953,1.9370117.0751953l.2875977-.3876953Zm-1.1748047,2.137207v2.4116211h1.2124023v-2.4116211h-1.2124023Zm7.9731445-5.9487305l.375-.5c.1123047-.1499023.1621094-.1499023.199707-.1499023.0625,0,.1748047.0878906.2250977.125l.5249023.5c.0996094.1000977.125.125.125.2001953,0,.1123047-.1000977.1245117-.1875.1245117h-4.8237305c-.7626953,0-1.0375977.0375977-1.3500977.0878906l-.2124023-.4624023c.6000977.0625,1.1875.074707,1.7871094.074707h.8500977c-.0253906-.9619141-.0751953-1.0996094-.25-1.4746094l1.387207.2998047c.0996094.0253906.2124023.0878906.2124023.2128906,0,.1499023-.1499023.2495117-.3251953.3496094v.6123047h1.4624023Zm-2.5493164,3.0869141v.9995117h1.1245117v-.9995117h-1.1245117Zm1.1245117,2.4243164v-1.1245117h-1.1245117v1.1245117h1.1245117Zm-.262207.2998047c.2246094.5249023.512207.9248047.7744141,1.2124023.1000977-.1000977.7749023-.7246094,1.012207-1.2124023h-1.7866211Zm.262207-5.1733398c1.4121094-.0751953,2.6621094.4746094,2.6621094,1.1118164,0,.3251953-.3500977.4501953-.4750977.4501953-.2124023,0-.2875977-.0751953-.9746094-.6875-.1376953-.1123047-.6123047-.5371094-1.2373047-.7998047l.0249023-.074707Z"/>
        <path class="cls-3" d="m250.9240723,88.3857422c-.2124023.512207-.4248047.9995117-.7749023,1.637207l.175293.1123047c.0996094.0625.125.1123047.125.1625977,0,.0371094-.0126953.0996094-.050293.1499023-.0375977.0498047-.25.2124023-.2871094.262207,0,.4624023.0498047,5.0366211.0498047,5.1113281.0249023.4375.1123047,1.7495117.1123047,2.1245117,0,.6000977-.3496094.75-.7373047.75-.4121094,0-.5249023-.1499023-.5249023-.4750977,0-.199707.0625-1.074707.0751953-1.262207.0375977-.8496094.0375977-.887207.0625-3.9863281,0-.7001953.012207-.7749023.012207-1.3999023-.824707,1.074707-1.5869141,1.637207-1.9243164,1.887207l-.0751953-.0625c.9375-1.3374023,2.2246094-3.8867188,2.7119141-5.4736328.0751953-.2373047.0874023-.3876953.1499023-.887207l1.2749023.7373047c.0498047.0249023.1625977.0874023.1625977.2373047,0,.1748047-.2124023.2749023-.5375977.375Zm7.5356445,9.4477539h-6.4985352c-.8745117,0-1.1118164.0371094-1.3496094.0874023l-.2124023-.4624023c.6000977.0498047,1.1875.074707,1.7871094.074707h1.512207v-3.7236328h-.9248047c-.8623047,0-1.1123047.0371094-1.3496094.0874023l-.2001953-.4624023c.5874023.0498047,1.1748047.074707,1.7749023.074707h.699707v-3.1118164h-1.4746094c-.8623047,0-1.0996094.0375977-1.3496094.0751953l-.2001953-.449707c.5874023.0498047,1.1875.074707,1.7749023.074707h3.7988281l.4248047-.7373047c.0375977-.0625.112793-.199707.2124023-.199707.0625,0,.1376953.074707.2250977.137207l.9873047.7749023c.0498047.0375977.125.1000977.125.1875,0,.125-.125.137207-.1875.137207h-3.2744141v3.1118164h1.2373047l.4248047-.637207c.050293-.0751953.112793-.1625977.2001953-.1625977.074707,0,.1499023.0625.2250977.125l.8745117.6499023c.0498047.0375977.125.1123047.125.1875,0,.125-.125.1376953-.1875.1376953h-2.8994141v3.7236328h1.9121094l.5751953-.7119141c.0498047-.0625.1123047-.1625977.1870117-.1625977.0878906,0,.1376953.0625.237793.137207l.8496094.7124023c.0498047.0375977.125.1000977.125.1875,0,.125-.125.1376953-.1875.1376953Zm-4.0991211-8.0229492c-.4624023,0-.5498047-.3125-.762207-1.0751953-.0498047-.199707-.3496094-1.012207-.637207-1.4243164l.074707-.0751953c.6748047.2998047,1.9248047.8500977,1.9248047,1.8745117,0,.4624023-.2749023.7001953-.6000977.7001953Z"/>
        <path class="cls-3" d="m271.447998,90.1103516c-.4746094.3623047-.7246094.5249023-1.2124023.7373047l-.0371094-.050293c.2373047-.699707.262207-.8745117.3374023-1.3369141h-7.0361328c.0751953,1.2246094-.5371094,2.1367188-1.2871094,2.1367188-.3999023,0-.6245117-.2998047-.6245117-.5620117,0-.375.2749023-.5874023.9121094-1.0874023.125-.1000977.5498047-.4248047.75-1.3623047h.074707c.0625.1625977.1000977.3125.1499023.5751953h3.0620117c0-1.2749023-.0375977-1.3374023-.2875977-2.0498047l1.4121094.3999023c.0874023.0249023.2250977.0625.2250977.2001953,0,.1123047-.0249023.137207-.3374023.4121094v1.0375977h2.9868164l.375-.3999023c.0625-.0625.1499023-.1376953.262207-.1376953.0751953,0,.125.0249023.25.1499023l.7998047.762207c.012207.0126953.1625977.1625977.1625977.3374023,0,.237793-.112793.237793-.9375.237793Zm.8999023,7.7104492c-.6123047.4624023-2.7119141.4624023-3.5615234.4624023-2.9121094,0-2.9995117-.1123047-2.9243164-3.4741211l-2.5996094.4873047c-.699707.125-.9121094.1625977-1.324707.3125l-.2749023-.4125977c.5625-.0498047,1.199707-.137207,1.762207-.2373047l2.4370117-.449707c.012207-.9750977.0249023-1.262207.0371094-2.1494141-1.2119141.3374023-2.7617188.6499023-4.0864258.637207v-.1123047c.300293-.0751953,4.7612305-1.3999023,6.2485352-2.4619141.2001953-.1376953.3623047-.3125.5126953-.5126953l.8745117.9750977c.0874023.0996094.1000977.199707.1000977.2124023,0,.1621094-.0625.1621094-.625.2124023-.4873047.199707-1.1621094.4873047-1.9619141.7373047-.0126953.8120117-.0126953.9121094-.0498047,2.2617188l3.5488281-.6499023.5126953-.8623047c.1123047-.1748047.1245117-.1870117.199707-.1870117.0249023,0,.0625,0,.2250977.0874023l.9619141.5620117c.0625.0253906.1503906.0878906.1503906.1875,0,.1000977-.0878906.125-.1625977.1376953l-5.4487305,1.0249023c-.0126953,1.2993164-.0126953,1.3867188.0249023,1.9619141.0249023.2998047.0375977.512207.2749023.5996094.1748047.0751953,1.8745117.0751953,2.1870117.0751953.449707,0,1.6123047-.0375977,1.8745117-.4501953.2875977-.4624023.4624023-1.4243164.5498047-1.9243164h.0625c.1000977.4125977.1625977.7124023.2998047,1.2246094.125.5.1376953.5625.2875977.6875.1748047.1748047.25.25.25.3999023,0,.1625977-.1123047.4375-.3623047.637207Z"/>
      </g>
    </g>
    <rect class="cls-2" width="325" height="110"/>
  </g>
</svg>